<?xml version="1.0" encoding="UTF-8"?>
<svg width="700px" height="600px" viewBox="0 0 700 600" version="1.1" xmlns="http://www.w3.org/2000/svg" xmlns:xlink="http://www.w3.org/1999/xlink">
    <title>imge-6</title>
    <defs>
        <linearGradient x1="49.9984091%" y1="-2.47812484%" x2="49.9984091%" y2="102.091337%" id="linearGradient-1">
            <stop stop-color="#404040" offset="0%"></stop>
            <stop stop-color="#161616" offset="100%"></stop>
        </linearGradient>
        <linearGradient x1="50%" y1="-40.2626263%" x2="50%" y2="145.40404%" id="linearGradient-2">
            <stop stop-color="#404040" offset="0%"></stop>
            <stop stop-color="#161616" offset="100%"></stop>
        </linearGradient>
        <linearGradient x1="49.9975203%" y1="-46.9503733%" x2="49.9975203%" y2="149.151629%" id="linearGradient-3">
            <stop stop-color="#161616" offset="0%"></stop>
            <stop stop-color="#404040" offset="100%"></stop>
        </linearGradient>
    </defs>
    <g id="imge-6" stroke="none" stroke-width="1" fill="none" fill-rule="evenodd">
        <g id="Group-8" transform="translate(67.000000, 15.000000)" fill-rule="nonzero">
            <g id="Asset-1-Copy-2" transform="translate(183.459685, 0.000000)">
                <g id="Group" style="mix-blend-mode: multiply;" transform="translate(1.262967, 4.549417)">
                    <rect id="Rectangle" fill="#9C9C9C" opacity="0.65" x="0" y="0" width="272.882344" height="551.642344" rx="31.3752"></rect>
                    <rect id="Rectangle" fill="#969696" opacity="0.69" x="2.20000696" y="1.85648866" width="268.502701" height="547.929367" rx="29.6004"></rect>
                    <rect id="Rectangle" fill="#919191" opacity="0.73" x="4.37964348" y="3.71297732" width="264.102687" height="544.195989" rx="27.846"></rect>
                    <rect id="Rectangle" fill="#8B8B8B" opacity="0.77" x="6.57965043" y="5.56946598" width="259.723043" height="540.483011" rx="26.0712"></rect>
                    <rect id="Rectangle" fill="#858585" opacity="0.81" x="8.77965739" y="7.42595463" width="255.32303" height="536.770034" rx="24.2964"></rect>
                    <rect id="Rectangle" fill="#7F7F7F" opacity="0.85" x="10.9796643" y="9.30284427" width="250.923016" height="533.036656" rx="22.542"></rect>
                    <rect id="Rectangle" fill="#797979" opacity="0.88" x="13.1796713" y="11.1593329" width="246.543372" height="529.323678" rx="20.7672"></rect>
                    <rect id="Rectangle" fill="#747474" opacity="0.92" x="15.3593078" y="13.0158216" width="242.143358" height="525.610701" rx="19.0128"></rect>
                    <rect id="Rectangle" fill="#6E6E6E" opacity="0.96" x="17.5593148" y="14.8723102" width="237.763715" height="521.877323" rx="17.238"></rect>
                    <rect id="Rectangle" fill="#686868" x="19.7593217" y="16.7287989" width="233.363701" height="518.164346" rx="15.4632"></rect>
                </g>
                <path d="M-107.230814,145.336456 L382.396016,145.336456 C402.326647,145.336456 418.483616,161.493425 418.483616,181.424056 L418.483616,380.377974 C418.483616,400.308605 402.326647,416.465574 382.396016,416.465574 L-107.230814,416.465574 C-127.161445,416.465574 -143.318414,400.308605 -143.318414,380.377974 L-143.318414,181.424056 C-143.318414,161.493425 -127.161445,145.336456 -107.230814,145.336456 Z" id="Rectangle" fill="#1C1C1C" transform="translate(137.582601, 280.901015) rotate(90.000000) translate(-137.582601, -280.901015) "></path>
                <path d="M-107.220915,153.697865 L382.405118,153.697865 C397.727706,153.697865 410.149118,166.119277 410.149118,181.441865 L410.149118,380.400966 C410.149118,395.723554 397.727706,408.144966 382.405118,408.144966 L-107.220915,408.144966 C-122.543503,408.144966 -134.964915,395.723554 -134.964915,380.400966 L-134.964915,181.441865 C-134.964915,166.119277 -122.543503,153.697865 -107.220915,153.697865 Z" id="Rectangle" fill="#2B2B2B" transform="translate(137.592102, 280.921416) rotate(90.000000) translate(-137.592102, -280.921416) "></path>
                <path d="M2.03704348,115.510354 L2.03704348,115.510354 C0.958067887,115.512263 0.0647368896,114.671273 0,113.592625 L0,70.8525836 C0.0647368896,69.7739354 0.958067887,68.9329453 2.03704348,68.9348887 L2.03704348,68.9348887 C3.11601907,68.9329453 4.00935007,69.7739354 4.07408696,70.8525836 L4.07408696,113.69463 C3.95937063,114.732906 3.08007441,115.516653 2.03704348,115.510354 L2.03704348,115.510354 Z" id="Path" fill="#333333"></path>
                <path d="M2.03704348,176.570436 L2.03704348,176.570436 C0.958067887,176.572379 0.0647368896,175.731389 0,174.652741 L0,132.055506 C0.0647368896,130.976858 0.958067887,130.135868 2.03704348,130.137812 L2.03704348,130.137812 C3.11601907,130.135868 4.00935007,130.976858 4.07408696,132.055506 L4.07408696,174.652741 C4.00935007,175.731389 3.11601907,176.572379 2.03704348,176.570436 Z" id="Path" fill="#333333"></path>
                <path d="M273.14716,190.239085 L273.14716,190.239085 C271.94338,190.239085 270.967523,189.261766 270.967523,188.056181 L270.967523,120.345347 C270.967523,119.139763 271.94338,118.162443 273.14716,118.162443 L273.14716,118.162443 C274.354279,118.162443 275.33599,119.13647 275.347167,120.345347 L275.347167,188.056181 C275.33599,189.265058 274.354279,190.239085 273.14716,190.239085 Z" id="Path" fill="#333333"></path>
                <path d="M38.0885527,546.914897 C26.7801176,546.825101 17.6728863,537.594765 17.7178561,526.269111 L17.7178561,36.2989117 C17.661573,24.9619391 26.7688589,15.7133063 38.0885527,15.6123237 L84.4720327,15.6123237 C88.030411,15.6347903 90.9000158,18.5360677 90.8887197,22.0998337 L90.8887197,26.4248402 C90.8659557,28.8879491 92.8296112,30.9091763 95.2887336,30.9538565 L180.966782,30.9538565 C183.425905,30.9091763 185.38956,28.8879491 185.366796,26.4248402 L185.366796,21.855022 C185.333953,20.210716 185.963274,18.6223635 187.112912,17.4479743 C188.26255,16.2735852 189.835754,15.6123237 191.477927,15.6123237 L238.105852,15.6123237 C249.420836,15.7244357 258.521654,24.9665008 258.476455,36.2989117 L258.476455,526.269111 C258.510346,537.590192 249.409588,546.813967 238.105852,546.914897 L38.0885527,546.914897 Z" id="Path" fill="#EDEDED"></path>
                <g id="&lt;Group&gt;112" transform="translate(34.506459, 153.070104)">
                    <rect id="Rectangle" fill="#FFFFFF" x="0" y="0" width="206.259982" height="247.395283"></rect>
                    <path d="M127.903271,166.893781 L103.457771,191.098889 L79.0122713,166.893781 L82.5617855,132.850469 C85.0286687,135.872223 87.9630206,138.474948 91.2522727,140.558798 C98.7438674,145.174133 108.175987,145.174133 115.667582,140.558798 C118.956834,138.474948 121.891186,135.872223 124.358069,132.850469 L127.903271,166.893781 Z" id="Path" fill="#EDEDED"></path>
                    <path d="M82.3978954,134.425102 L80.405337,153.511567 C81.5486427,154.659193 82.8310268,155.657512 84.2222508,156.482982 L85.2745976,141.708324 C90.7769762,144.870917 97.1031415,146.282003 103.418955,145.755522 C99.1083816,145.755771 94.8820583,144.554568 91.2091438,142.285255 C87.867868,140.1629 84.8919518,137.508207 82.3978954,134.425102 L82.3978954,134.425102 Z" id="Path" fill="#190700" opacity="0.2"></path>
                    <path d="M66.0347645,76.5497364 L67.0827985,89.6022755 C67.0827985,89.6022755 69.4893949,89.3073028 70.364913,91.3374086 L70.364913,88.7000062 L72.0900718,80.4581238 L66.0347645,76.5497364 Z" id="Path" fill="#000000"></path>
                    <path d="M129.861326,63.505873 C125.483735,51.2254682 103.414642,50.9825495 103.414642,50.9825495 C103.414642,50.9825495 81.3498614,51.2254682 76.9722711,63.505873 C72.5946807,75.7862778 70.364913,88.6653036 70.364913,88.6653036 L70.364913,91.6063542 C70.364913,91.6063542 73.6470276,118.735161 75.9414887,124.06202 C77.5760766,127.853286 82.6178531,136.936708 91.2048309,142.250553 C98.6980407,146.865662 108.131243,146.865662 115.624453,142.250553 C124.211431,136.936708 129.25752,127.853286 130.887795,124.06202 C133.186569,118.735161 136.468684,91.6063542 136.468684,91.6063542 L136.468684,88.6653036 C136.468684,88.6653036 134.251855,75.7992913 129.861326,63.505873 Z" id="Path" fill="#EDEDED"></path>
                    <path d="M136.408303,91.7364892 C136.408303,91.7364892 136.70158,89.0296815 139.785302,89.6022755 C143.382258,90.2703017 142.623188,97.9829685 140.729826,101.696153 C138.836464,105.409338 138.461242,106.120743 138.573378,108.784172 C138.685513,111.447602 137.279508,114.249842 133.324582,113.35191 L136.408303,91.7364892 Z" id="Path" fill="#EDEDED"></path>
                    <path d="M70.4554838,91.7364892 C70.4554838,91.7364892 70.1665198,89.0296815 67.0827985,89.6022755 C63.4858424,90.2703017 64.2405994,97.9829685 66.1339611,101.696153 C68.0273229,105.409338 68.4068578,106.120743 68.3119741,108.784172 C68.2170904,111.447602 69.6058432,114.249842 73.5564567,113.35191 L70.4554838,91.7364892 Z" id="Path" fill="#EDEDED"></path>
                    <path d="M124.332192,59.9878906 C124.332192,59.9878906 89.9627165,81.7551358 74.9753998,80.8788936 C59.9880831,80.0026513 62.6060115,62.2262123 67.9195005,55.5546254 C73.2329895,48.8830384 87.2585302,37.8606052 104.790456,37.1535384 C121.179464,36.4941878 127.510797,46.8789597 127.510797,46.8789597 C127.510797,46.8789597 143.955873,50.9565225 143.99921,67.5443954 C144.033505,82.7571752 139.759424,89.6022755 139.759424,89.6022755 C139.759424,89.6022755 136.986232,89.4894918 136.464371,91.3721113 L136.464371,88.6869927 C136.464371,88.6869927 130.986992,67.1496526 124.332192,59.9878906 Z" id="Path" fill="#141414"></path>
                    <path d="M74.9797127,80.8788936 C74.0024882,80.8235423 73.0323523,80.6783422 72.081446,80.4451103 C69.6655426,79.9210839 67.5203738,78.5340736 66.0433903,76.5410607 L66.5393735,82.8612832 C67.9841673,83.7102719 69.5873971,84.250725 71.2490569,84.44893 C73.0323718,84.6659698 74.8372562,84.6279985 76.6099877,84.3361464 C100.399927,80.7530964 123.517054,60.703633 124.310627,60.0052419 C123.284158,60.651579 89.7384459,81.7421223 74.9797127,80.8788936 Z" id="Path" fill="#190700" opacity="0.2"></path>
                    <path d="M70.8522704,97.0546723 C70.6204529,96.3851284 70.2967293,95.7514586 69.8904943,95.1720528 C69.8904943,95.1720528 69.8904943,95.1720528 69.8904943,95.1720528 L69.8904943,95.1720528 C69.5557835,94.6873604 69.0987688,94.3010688 68.566435,94.052892 C68.0881468,93.8267919 67.5396169,93.8033485 67.0439824,93.9878245 C66.9336303,94.0316865 66.8461197,94.119338 66.8020517,94.230145 C66.7579837,94.3409519 66.7612516,94.4651248 66.811086,94.5734319 C66.8520893,94.6867625 66.938151,94.7778087 67.0486159,94.8247191 C67.1590808,94.8716295 67.2839763,94.8701691 67.393327,94.8206884 C67.6800952,94.7337534 67.9891799,94.7617319 68.2559064,94.8987694 C68.5031236,95.0152554 68.7245797,95.180464 68.9071539,95.3846067 C67.8103515,96.3930505 67.6259063,98.0626551 68.4758642,99.2886562 C68.5586895,99.4192973 68.7013618,99.4991991 68.8553991,99.50121 C68.94097,99.5026893 69.0250438,99.4785293 69.0969213,99.4318047 C69.2024601,99.3718101 69.2780213,99.2699112 69.305101,99.151062 C69.3321808,99.0322128 69.3082782,98.9073883 69.2392469,98.8071568 C68.6368109,97.9836615 68.7306973,96.8394012 69.4592047,96.1263761 C69.6922624,96.524796 69.887216,96.9445542 70.0414457,97.3800098 C70.1088317,97.5600879 70.2814573,97.678152 70.4727354,97.6749824 C70.5255505,97.6748257 70.577989,97.6660354 70.6279997,97.6489554 C70.7390916,97.6035774 70.826387,97.5137332 70.8689361,97.4009845 C70.9114852,97.2882358 70.9054469,97.1627609 70.8522704,97.0546723 Z" id="Path" fill="#190700" opacity="0.2"></path>
                    <path d="M135.977014,97.0546723 C136.210176,96.3848892 136.535357,95.7512078 136.943103,95.1720528 L136.943103,95.1720528 L136.943103,95.1720528 C137.276876,94.6865014 137.734148,94.2999923 138.267162,94.052892 C138.745568,93.8272736 139.293903,93.8038385 139.789614,93.9878245 C139.899967,94.0316865 139.987477,94.119338 140.031545,94.230145 C140.075613,94.3409519 140.072345,94.4651248 140.022511,94.5734319 C139.927109,94.8033025 139.665804,94.9134532 139.435957,94.8206884 C139.149189,94.7337534 138.840104,94.7617319 138.573378,94.8987694 C138.327704,95.017841 138.106716,95.1827004 137.92213,95.3846067 C139.017131,96.393971 139.20142,98.0621547 138.35342,99.2886562 C138.269763,99.4205815 138.125145,99.5006632 137.969572,99.5012218 C137.885465,99.5018336 137.803012,99.4777087 137.732363,99.4318047 C137.626824,99.3718101 137.551263,99.2699112 137.524183,99.151062 C137.497103,99.0322128 137.521006,98.9073883 137.590037,98.8071568 C138.190552,97.9831151 138.09678,96.840257 137.370079,96.1263761 C137.135443,96.5245822 136.939039,96.9443545 136.783525,97.3800098 C136.721854,97.5645286 136.545519,97.6851292 136.352236,97.6749824 C136.299421,97.6748257 136.246982,97.6660354 136.196971,97.6489554 C136.086646,97.6027259 136.000341,97.5125242 135.958645,97.3998691 C135.916949,97.287214 135.923601,97.1622077 135.977014,97.0546723 Z" id="Path" fill="#190700" opacity="0.2"></path>
                    <path d="M190.578288,228.239449 C192.06403,228.244926 193.481433,227.612182 194.474073,226.500294 C195.466714,225.388406 195.94015,223.90316 195.775329,222.418042 C193.258846,200.972074 180.464426,182.123166 161.522302,171.956032 L126.48864,153.151527 L120.019295,157.576116 C110.01281,164.411479 96.8687698,164.399437 86.8746824,157.545751 L80.4657176,153.151527 L43.2497302,173.673814 C25.1904922,183.644912 13.001228,201.74316 10.4932782,222.309596 C10.3056169,223.806349 10.7646585,225.312233 11.754181,226.445981 C12.7437034,227.579729 14.1688347,228.232643 15.6687545,228.239449 L190.578288,228.239449 Z" id="Path" fill="#141414"></path>
                    <path d="M121.114771,90.9817063 C121.232551,91.7243734 120.861244,92.4588084 120.195196,92.8006014 C119.529148,93.1423945 118.720004,93.0137261 118.191277,92.4819426 C117.66255,91.950159 117.534622,91.1363368 117.87445,90.4664375 C118.214278,89.7965383 118.944491,89.4230847 119.682889,89.5415458 C120.419568,89.659731 120.997265,90.2407683 121.114771,90.9817063 Z" id="Path" fill="#141414"></path>
                    <rect id="Rectangle" fill="#141414" x="103.095488" y="88.5915604" width="1" height="26.8468475"></rect>
                    <path d="M89.1260145,90.9817063 C89.2165969,91.5330747 89.037597,92.0945736 88.6451334,92.4901663 C88.2526698,92.8857589 87.6947896,93.0670153 87.1463949,92.9771094 C86.2773531,92.8346354 85.6544476,92.0567774 85.7012113,91.1724253 C85.7479749,90.2880731 86.4493991,89.5810565 87.3285637,89.532098 C88.2077283,89.4831394 88.9824686,90.1079521 89.1260145,90.9817063 Z" id="Path" fill="#141414"></path>
                    <path d="M41.9213579,141.369973 L38.613366,141.369973 L38.613366,158.144372 L55.2913383,158.144372 L55.2913383,154.821592 L41.9213579,154.821592 L41.9213579,141.369973 Z M38.613366,28.4475079 L38.613366,45.2175697 L41.9213579,45.2175697 L41.9213579,31.7702878 L55.2913383,31.7702878 L55.2913383,28.4475079 L38.613366,28.4475079 Z M164.269617,154.821592 L150.899637,154.821592 L150.899637,158.144372 L167.581922,158.144372 L167.581922,141.369973 L164.269617,141.369973 L164.269617,154.821592 Z M150.899637,28.4475079 L150.899637,31.7702878 L164.269617,31.7702878 L164.269617,45.2175697 L167.573296,45.2175697 L167.573296,28.4475079 L150.899637,28.4475079 Z" id="Shape" fill="#141414"></path>
                </g>
                <g id="4285556_ban_no_prohibition_sign_icon" transform="translate(45.299133, 187.897595)" fill="#FF0000" fill-opacity="0.684185322">
                    <path d="M92.3373173,0 C41.4210665,0 0,41.4845102 0,92.4761149 C0,143.461478 41.4210665,184.945989 92.3373173,184.945989 C143.250452,184.945989 184.674635,143.461478 184.674635,92.4761149 C184.674635,41.4845102 143.250452,0 92.3373173,0 Z M164.423747,92.4761149 C164.423747,108.854905 158.881513,123.924579 149.666791,136.051468 L48.8190211,35.0606291 C60.928731,25.8281528 75.9770556,20.2842981 92.3373173,20.2842981 C132.083405,20.2842981 164.423747,52.6705205 164.423747,92.4761149 Z M20.2493297,92.4761149 C20.2493297,76.3578996 25.6201699,61.5019918 34.5715703,49.473403 L135.274435,150.319131 C123.266003,159.287912 108.432699,164.66013 92.3373173,164.66013 C52.5865556,164.66013 20.2493297,132.277028 20.2493297,92.4761149 Z" id="Shape"></path>
                </g>
                <g id="Group" opacity="0.15" transform="translate(14.372441, 152.974033)" fill="#000000">
                    <path d="M0.579458104,3.9706624 C0.649452713,4.31498181 0.855068097,4.61651286 1.14983028,4.80710234 C1.45210522,4.99984137 1.81794189,5.06579069 2.16835202,4.99071111 C2.88649354,4.81909329 3.33208851,4.09960802 3.16650332,3.37903414 L2.61650158,0.910516258 C2.39399649,0.259673928 1.71739431,-0.118521126 1.04746906,0.0334863624 C0.377543809,0.185493851 -0.0702303951,0.818812341 0.00908593022,1.50214451 L0.579458104,3.9706624 Z" id="Path"></path>
                </g>
            </g>
            <g id="Group-12" transform="translate(0.000000, 91.272046)">
                <path d="M169.095234,62.527903 C168.795903,62.3393082 168.433681,62.2784703 168.089293,62.358948 C167.744905,62.4394256 167.446973,62.6545306 167.261895,62.9563234 L165.917446,64.9964209 C165.53317,65.617754 165.713987,66.4326503 166.324855,66.8325086 C166.951508,67.2194634 167.77167,67.0389378 168.178564,66.4244891 L169.523013,64.3843916 C169.71231,64.0814493 169.773589,63.715567 169.693351,63.3673465 C169.613113,63.0191261 169.39794,62.717136 169.095234,62.527903 Z" id="Path" fill="#000000"></path>
                <path d="M135.993277,109.042124 C134.631545,109.196024 133.32468,108.458339 132.751,107.211957 C132.17732,105.965575 132.466056,104.491268 133.467343,103.554262 L167.97486,71.993955 C169.281962,70.9342988 171.187099,71.0779819 172.321,72.3217354 C173.454901,73.5654889 173.42494,75.4786499 172.252651,76.6861791 L137.724764,108.226085 C137.249734,108.676753 136.642796,108.962799 135.993277,109.042124 L135.993277,109.042124 Z" id="Path" fill="#000000"></path>
                <path d="M62.2930444,65.0984257 C62.2930444,65.0984257 68.4041748,71.6063365 75.2893818,70.6270898 C83.8449644,69.4234323 87.7764583,58.3865052 87.7764583,58.3865052 C87.7764583,58.3865052 93.7246252,62.4667001 95.4153713,60.3041968 C98.6746409,55.8771854 94.3561087,47.3699791 97.1672287,39.9032225 C100.752425,30.4167695 100.752425,23.2152256 86.6560844,16.9317255 C72.5597435,10.6482254 65.1652757,21.4403408 54.7559835,41.1476819 C48.6170892,52.8501731 41.7382548,64.1481019 34.1614739,74.9724973 L53.3504235,83.2960948 L62.2930444,65.0984257 Z" id="Path" fill="#F2F2F2"></path>
                <path d="M53.3504235,84.3773464 C53.2093144,84.4064825 53.0637535,84.4064825 52.9226444,84.3773464 L33.7336948,75.972145 C33.4318927,75.8399627 33.2068555,75.5770257 33.1225818,75.2581109 C33.0413598,74.9429097 33.1008247,74.6079187 33.2855453,74.3400671 C40.8519618,63.5543698 47.7370426,52.3050514 53.9004252,40.6580586 C64.0856426,21.317935 71.8264079,9.15895429 87.1042339,15.9524787 C101.485761,22.3583846 102.015392,29.988349 98.1857505,40.2092371 C97.1400306,43.7146851 96.9100739,47.4134673 97.5135261,51.0217535 C97.8394531,54.7959337 98.16538,58.3661042 96.2709296,60.936627 C94.3764792,63.5071497 90.4042444,61.3038445 88.2857192,59.9981822 C86.9209,63.0583283 82.8264426,70.6678917 75.4319748,71.7083414 C69.7893644,72.5039794 64.7782374,68.7910021 62.6189713,66.8937115 L54.3282044,83.7857182 C54.1346877,84.1470281 53.7598022,84.373861 53.3504235,84.3773464 Z M35.8114792,74.5236759 L52.8411626,81.9088285 L61.3356339,64.5680004 C61.4835682,64.2489783 61.7824335,64.0264119 62.1300809,63.9763722 C62.4838246,63.9157175 62.8441756,64.0385741 63.0874913,64.3027877 C63.0874913,64.3027877 68.8930652,70.42308 75.1264183,69.5050362 C82.9282948,68.4033836 86.7375661,58.0600896 86.778307,57.9580847 C86.8931617,57.6430704 87.1499816,57.4009952 87.4709018,57.3052536 C87.7879961,57.1990712 88.1367385,57.2522202 88.4079418,57.4480604 C90.8116531,59.1413413 93.9283296,60.4062017 94.5190722,59.4881578 C95.9246322,57.5908672 95.6598165,54.551122 95.35426,51.0421545 C94.7228154,47.115654 94.9945307,43.0966111 96.148707,39.2911933 C99.7135331,29.8863441 99.1839018,23.7660519 86.2283052,17.9313732 C73.6801174,12.3415063 66.9578739,20.3590892 55.6726531,41.6577063 C49.6941633,52.9894384 43.0625717,63.9632957 35.8114792,74.5236759 Z" id="Shape" fill="#000000"></path>
                <path d="M46.954107,53.5718753 C56.2764106,54.6684075 65.6994832,52.6533215 73.7615992,47.8392015 C73.7615992,47.8392015 70.4615887,41.1476819 76.3079035,37.7611202 C82.1542183,34.3745585 82.70422,44.4730408 82.70422,44.4730408 C82.70422,44.4730408 92.8894374,38.7811689 93.1746235,28.2950682 C93.1746235,28.2950682 99.5301992,30.3351656 103.78762,29.3151169 C110.163566,27.8054448 115.663583,13.5655647 101.750577,9.19975624 C87.8375696,4.83394774 85.6783035,9.64857767 77.7542044,2.83465226 C69.3615852,-4.36689165 56.8541383,2.34502888 55.8967279,20.7875096 C55.1948998,32.2146091 52.1508,43.3745232 46.954107,53.5718753 L46.954107,53.5718753 Z" id="Path" fill="#000000"></path>
                <path d="M90.7301713,46.7375489 C89.9153539,47.8596025 88.6931279,48.3084239 87.7968287,47.7167957 C86.9793272,46.8452695 86.9793272,45.4873737 87.7968287,44.6158476 C88.6320165,43.493794 89.8338722,43.0449726 90.7301713,43.6366008 C91.5476729,44.508127 91.5476729,45.8660227 90.7301713,46.7375489 Z" id="Path" fill="#000000"></path>
                <path d="M82.0116252,67.8729582 C81.9174792,67.8916486 81.8205852,67.8916486 81.7264392,67.8729582 C74.3727122,65.8328608 73.191227,61.0182309 73.1504861,60.8142211 C73.0352724,60.2365244 73.394254,59.6702807 73.9653035,59.5289598 C74.5442082,59.4021479 75.1169745,59.7663542 75.2486409,60.3449987 C75.2486409,60.5082065 76.2671626,64.13958 82.2968113,65.7920589 C82.5750836,65.8634309 82.8124809,66.0449269 82.9545844,66.2949425 C83.0966879,66.544958 83.1313112,66.8420524 83.0505174,67.1181222 C82.9193796,67.5795024 82.4902661,67.8912867 82.0116252,67.8729582 Z" id="Path" fill="#000000"></path>
                <path d="M127.23399,83.5817084 C126.072876,80.1951467 97.8598235,89.9468124 95.0283331,95.4958774 C92.1968426,101.044942 89.2431296,107.144834 89.2431296,107.144834 L88.1023852,109.552149 L96.6783383,115.325624 C97.1634491,114.404517 97.5986492,113.457899 97.9820461,112.489889 C97.9820461,112.489889 110.937643,110.694603 112.974686,105.165939 C114.316621,101.394699 115.345427,97.5189542 116.050622,93.5781858 C116.050622,93.5781858 128.354364,87.0090721 127.23399,83.5817084 Z" id="Path" fill="#F2F2F2"></path>
                <path d="M96.6783383,116.406915 C96.4608161,116.408728 96.2478084,116.34473 96.0672252,116.223267 L87.4097905,110.449792 C86.9728445,110.143454 86.8182942,109.567321 87.0431226,109.082926 L88.183867,106.675611 C88.183867,106.675611 91.1579505,100.555319 93.9894409,95.006254 C96.8209313,89.457189 119.391373,81.3580022 125.746949,81.8272246 C127.071027,81.8272246 127.783992,82.3780509 128.17103,83.2144909 L128.17103,83.2144909 C129.454368,86.9682702 120.471006,92.3541274 116.987662,94.2922199 C116.266256,98.1205933 115.244569,101.886041 113.932097,105.553558 C111.895053,110.980217 101.709836,112.999913 98.7561226,113.469136 C98.5320478,113.938358 98.1857505,114.713595 97.6357487,115.815248 C97.490075,116.086207 97.2396735,116.285354 96.9431539,116.366074 L96.6783383,116.406915 Z M89.3857226,109.16453 L96.2505592,113.754749 C96.7801905,112.632696 96.9635244,112.122671 96.9838948,112.10227 C97.1211363,111.731887 97.4491537,111.465951 97.8394531,111.408637 C101.241316,110.939415 110.428382,108.838115 111.915423,104.798722 C113.247117,101.092313 114.282481,97.2857398 115.01173,93.414978 C115.073855,93.0887946 115.274614,92.805822 115.561731,92.639741 C121.367305,89.497991 126.29695,85.519801 126.215469,84.0713318 C125.82843,83.948926 124.178425,83.6429114 118.535815,85.1525835 C109.38949,87.6415023 97.554267,92.9049537 95.9653731,95.9855008 C93.1338826,101.514165 90.1801696,107.614056 90.1801696,107.614056 L89.3857226,109.16453 Z" id="Shape" fill="#000000"></path>
                <path d="M66.5504652,137.358677 C66.5504652,137.358677 52.0874566,111.898261 39.3355644,106.757215 C26.5836722,101.61617 15.1965992,114.285175 21.3077296,123.730826 C21.3077296,123.730826 46.0578079,166.572872 65.9393522,162.615083 C81.8486618,159.493734 92.8486965,129.361495 97.8394531,115.325624 L87.8171992,108.634105 L66.5504652,137.358677 Z" id="Path" fill="#FFFFFF"></path>
                <path d="M63.2708252,163.941347 C43.5115035,163.941347 21.3077296,125.974933 20.3299487,124.281652 C17.4448783,119.803819 17.9298291,113.94219 21.511434,110.00097 C26.0003726,104.802819 33.3281513,103.104184 39.6411209,105.798369 C50.9874531,110.327386 63.2911957,129.89192 66.5708357,135.400183 L86.8190479,107.981274 C87.1649914,107.521789 87.8096762,107.41418 88.2857192,107.736462 L98.3283435,114.427982 C98.7313912,114.710849 98.8977776,115.22742 98.7357522,115.692842 C93.9690705,129.05548 82.8264426,160.370976 66.1430566,163.675933 C65.1964894,163.857342 64.2345549,163.946164 63.2708252,163.941347 L63.2708252,163.941347 Z M33.3873974,106.675611 C29.451912,106.688589 25.7235308,108.443555 23.20218,111.46984 C20.2776054,114.696133 19.8688832,119.482847 22.2040287,123.159599 C22.4688444,123.628821 46.8115139,165.267209 65.7152774,161.554232 C80.9727331,158.555289 92.1968426,128.21904 96.5357452,115.754045 L88.0412739,110.102975 L67.4263939,138.011508 C67.206591,138.303955 66.8539737,138.465174 66.4893539,138.439928 C66.1216323,138.42126 65.7899693,138.212694 65.6134252,137.889102 C65.4708322,137.64429 51.1911574,112.693899 38.9281557,107.797665 C37.1688426,107.075645 35.2885985,106.694879 33.3873974,106.675611 Z" id="Shape" fill="#000000"></path>
                <path d="M38.989267,62.527903 L60.21526,75.7885363 L56.6708044,82.5208578 C56.6708044,82.5208578 72.7430774,100.534918 70.9301087,121.486719 C69.11714,142.438519 64.6967557,205.130713 64.6967557,205.130713 L1.07988787,205.130713 C1.07988787,205.130713 6.02990352,109.858163 14.0558548,90.1304212 C23.5892183,66.6897017 34.4262896,69.3214274 34.4262896,69.3214274 L38.989267,62.527903 Z" id="Path" fill="#FFFFFF"></path>
                <path d="M64.757867,206.211965 L1.07988787,206.211965 C0.784898072,206.209353 0.504358403,206.083661 0.305811346,205.865148 C0.105275656,205.64935 -0.00420582791,205.364271 0.000123681947,205.06951 C0.203959172,201.254528 5.01138178,109.450144 13.1595557,89.7224017 C21.5929157,69.0154128 31.16702,67.9749631 33.9577696,68.1789729 L38.19482,61.8342699 C38.5143348,61.3587537 39.1488359,61.2155532 39.6411209,61.5078543 L60.8671139,74.8704924 C61.3520943,75.1697206 61.5215102,75.7948201 61.2541522,76.2985606 L58.0356235,82.4188529 C60.8060026,85.7238107 73.7615992,102.289402 72.1523348,121.609124 C70.4208479,142.316113 66.0412044,204.620689 65.8986113,205.253119 C65.8345555,205.826274 65.3326001,206.248189 64.757867,206.211965 Z M2.22063222,204.049462 L63.7393452,204.049462 C64.3300879,195.889072 68.3023226,140.663634 69.8504757,121.405115 C71.6227035,101.167348 55.9374687,83.4185006 55.9374687,83.2552928 C55.6396963,82.9169832 55.5828628,82.4291082 55.7948757,82.0312344 L58.8911818,76.1761548 L39.3763053,63.9355702 L35.3022183,70.0558625 C35.0413788,70.4268095 34.5831511,70.6039344 34.1411035,70.5046839 C34.1411035,70.5046839 24.0781087,68.4645865 15.0743766,90.6608465 C7.6595383,108.715709 2.81137482,193.216544 2.22063222,204.049462 Z" id="Shape" fill="#000000"></path>
                <path d="M124.219166,113.163121 L127.498806,110.245782 C128.744937,106.089417 130.213737,102.003302 131.89882,98.0051972 C134.159938,93.3537751 137.622912,84.9281727 140.474773,85.5810039 C142.511817,86.0298253 141.819222,92.5989391 140.128476,97.43397 C138.43773,102.269001 142.67478,102.615817 144.711823,101.106145 C146.748867,99.5964732 159.460018,87.6211013 159.460018,87.6211013 C159.460018,87.6211013 159.684093,103.125842 151.148881,109.694955 C146.426004,113.255682 140.947093,115.678115 135.137719,116.774094 L130.269185,121.323511 L124.219166,113.163121 Z" id="Path" fill="#F2F2F2"></path>
                <path d="M130.269185,122.343639 L130.269185,122.343639 C129.969997,122.310062 129.697591,122.155222 129.515479,121.915139 L123.404349,113.754749 C123.061517,113.310252 123.124037,112.67517 123.546942,112.30628 L126.602507,109.613352 C127.830382,105.453592 129.292606,101.366848 130.98215,97.372767 L131.980302,95.3326696 C135.17846,88.5187442 137.684023,83.7653172 140.739589,84.4589503 C141.378155,84.606077 141.916751,85.0331047 142.20626,85.6218059 C143.550709,88.0699228 142.430335,94.1698141 141.187738,97.7195836 C140.922923,98.5152216 140.556255,99.9228888 141.309961,100.473715 C142.232348,100.894373 143.310479,100.777009 144.121081,100.167701 C145.689604,99.004845 154.306298,90.8852572 158.767423,86.7642604 C159.082336,86.4767644 159.534715,86.3972808 159.928538,86.5602507 C160.319708,86.7292725 160.575056,87.1128676 160.58048,87.5394974 C160.58048,88.1923286 160.702615,103.656267 151.841476,110.470193 C147.067393,114.062971 141.545899,116.531495 135.687721,117.692137 L131.043262,122.037545 C130.835207,122.237136 130.557269,122.347013 130.269185,122.343639 Z M125.685837,113.305928 L130.411778,119.650631 L134.485865,115.917253 C134.65368,115.770773 134.857703,115.672131 135.076608,115.631639 C140.690439,114.555449 145.985225,112.211087 150.558138,108.776912 C156.547046,104.186692 157.993347,94.7410414 158.360015,90.1712231 C154.693337,93.5985868 147.034053,100.738928 145.424789,101.922184 C143.867256,103.105733 141.749163,103.226718 140.067364,102.228199 C139.272917,101.636571 138.030321,100.188101 139.191436,97.0259505 C140.984034,91.884905 140.963663,87.090676 140.271069,86.5602507 C138.743286,86.2338351 135.382164,93.2721712 133.956234,96.2915154 L132.958083,98.3316128 C131.282552,102.326636 129.833939,106.413355 128.61918,110.572197 C128.549808,110.758452 128.438242,110.926052 128.293253,111.061821 L125.685837,113.305928 Z" id="Shape" fill="#000000"></path>
                <path d="M28.2336774,90.8036533 C32.898507,86.5806516 46.3837348,83.7245153 57.7504374,100.698126 C69.11714,117.671736 83.1116287,139.072358 83.1116287,139.072358 C83.1116287,139.072358 112.66913,117.773741 124.239537,111.367835 C127.288177,114.234926 129.927265,117.509556 132.082154,121.0991 C132.082154,121.0991 109.38949,147.151144 93.3783278,155.02592 C77.3671661,162.900696 61.1115592,155.02592 48.0744809,142.989346 C35.0374026,130.952771 13.9336322,103.71747 28.2336774,90.8036533 Z" id="Path" fill="#FFFFFF"></path>
                <path d="M79.9542113,159.248922 C69.5041783,159.248922 58.4226618,154.046674 47.2392931,143.784984 C38.6022287,135.869405 22.3058809,116.957702 22.3669922,101.942585 C22.2216932,97.4148942 24.0686507,93.0516283 27.41886,90.0080153 C30.8976432,87.1736263 35.4137134,85.950235 39.8448253,86.6418546 C44.6726183,87.2334828 51.8430113,90.0488173 58.5652548,100.106498 C68.4652861,114.897204 80.4838426,133.217279 83.3153331,137.542285 C88.5301644,133.931313 113.382095,116.141663 123.730276,110.429391 C124.137605,110.197482 124.647797,110.255171 124.993243,110.572197 C128.124493,113.538155 130.832134,116.922631 133.039564,120.629878 C133.238661,121.01629 133.182146,121.485256 132.896971,121.813134 C131.959931,122.873985 109.87838,148.130391 93.7449957,156.005167 C89.4578678,158.13292 84.7388969,159.242877 79.9542113,159.248922 L79.9542113,159.248922 Z M37.6040774,88.6411501 C34.4336545,88.562425 31.3377802,89.6103849 28.8651609,91.5992913 L28.8651609,91.5992913 C25.9452662,94.230382 24.3224479,98.0102095 24.4244061,101.942585 C24.4244061,116.223267 40.2318635,134.584144 48.6041122,142.193708 C59.4615539,152.149383 75.9208652,162.268266 92.7264739,154.067075 C107.169112,147.008337 127.356213,124.750875 130.696964,120.956293 C128.787754,117.978457 126.531104,115.239022 123.974721,112.795904 C112.22098,119.446621 84.0282983,139.72519 83.7431122,140.051605 C83.4958712,140.211522 83.1993136,140.276718 82.9079244,140.235214 C82.6216259,140.182866 82.3703789,140.01265 82.2153296,139.765992 C82.0727365,139.541581 68.0782479,118.202162 56.8541383,101.41216 C50.5800444,92.0277118 44.0411348,89.4163871 39.6614913,88.8655608 C38.9810215,88.7479258 38.2938788,88.6729762 37.6040774,88.6411501 Z" id="Shape" fill="#000000"></path>
                <path d="M71.1541835,454.634628 C59.5837766,454.328614 40.9651992,439.537908 40.7818653,439.395101 C40.4005069,439.112842 39.8798862,439.112842 39.4985279,439.395101 C25.3818166,449.065163 15.7873418,441.986024 15.3799331,441.761614 C15.1304524,441.588953 14.8225928,441.522884 14.5243748,441.578005 C14.2334929,441.64515 13.9787708,441.820079 13.8114096,442.067628 C6.51879395,454.083802 10.6539922,469.221325 10.8373261,469.874156 C10.9670723,470.339262 11.3941001,470.657917 11.8762183,470.64956 L86.9005296,470.64956 C87.1828493,470.654205 87.4549632,470.543724 87.6542357,470.343379 C87.8556629,470.13475 87.9719175,469.858232 87.9801626,469.568142 C87.7968287,458.592417 83.7023713,454.961044 71.1541835,454.634628 Z" id="Path" fill="#000000"></path>
                <path d="M1.38544439,204.090263 C1.03944006,203.990573 0.666623705,204.066772 0.387293085,204.294273 C0.118089593,204.527437 -0.0190759866,204.878497 0.0206252595,205.232718 C0.40766352,209.088502 9.61510004,298.954794 12.9762218,311.317784 C12.3447383,313.521089 9.30954352,326.496109 9.51324787,373.438751 C9.75769308,432.05075 13.5873348,442.536851 13.7299279,442.965271 C13.7882889,443.12362 13.8865284,443.264173 14.015114,443.373291 C17.0509345,445.714114 20.7979849,446.938593 24.6281105,446.841456 C30.4555919,446.610176 36.0721808,444.595141 40.7207539,441.067981 C41.0345614,440.853237 41.2125083,440.489061 41.1892739,440.109135 C41.1892739,439.619511 38.2151905,391.514014 42.88002,371.174243 C46.954107,353.5274 52.3319018,326.883728 55.53006,310.950567 L56.9967313,303.749023 C57.2208061,302.64737 57.5671035,301.219302 58.0152531,299.526021 C62.6393418,281.409956 76.7560531,226.123316 1.38544439,204.090263 Z" id="Path" fill="#000000"></path>
                <path d="M85.5968218,299.50562 C84.9857087,276.105703 66.5708357,207.701236 65.7967592,204.8451 C65.6625786,204.380125 65.2410826,204.057321 64.757867,204.049393 L1.07988787,204.049393 C0.773389709,204.04591 0.481592348,204.180788 0.285440912,204.416679 C0.078349937,204.642754 -0.0185564874,204.94884 0.0206252595,205.253119 C5.01138178,247.177121 40.863347,309.094078 43.5726148,313.725099 C42.4522409,353.772212 58.6467366,441.945222 58.8097,442.822464 C58.8575628,443.132716 59.0454049,443.403614 59.3189609,443.556899 C62.7773243,445.662243 66.7404748,446.790226 70.7875157,446.821055 C76.369576,446.707928 81.7398838,444.660402 85.98386,441.027179 C86.2072978,440.823555 86.3332927,440.534075 86.3302146,440.231541 C86.3302146,439.068685 86.2079348,322.762731 85.5968218,299.50562 Z" id="Path" fill="#000000"></path>
                <path d="M116.274697,454.634628 C104.70429,454.328614 86.1060826,439.537908 85.9227487,439.395101 C85.5413904,439.112842 85.0207696,439.112842 84.6394113,439.395101 C70.6041818,449.105964 60.9282252,442.10843 60.5208166,441.802416 C60.2713359,441.629755 59.9634763,441.563686 59.6652583,441.618807 C59.3688925,441.673046 59.1096095,441.851107 58.9522931,442.10843 C51.6596774,454.124604 55.7948757,469.262127 55.9782096,469.914958 C56.1079558,470.380064 56.5349835,470.698719 57.0171018,470.690195 L132.021043,470.690195 C132.309948,470.698222 132.589584,470.587675 132.795119,470.384181 C132.992577,470.174642 133.101985,469.897061 133.100687,469.608944 C132.937712,458.592417 128.843255,454.961044 116.274697,454.634628 Z" id="Path" fill="#000000"></path>
                <path d="M173.556359,66.6080978 C173.85569,66.7966926 174.217912,66.8575305 174.5623,66.7770528 C174.906688,66.6965752 175.20462,66.4814702 175.389698,66.1796774 L176.734147,64.13958 C176.988865,63.7387088 177.010692,63.2321945 176.791406,62.810836 C176.57212,62.3894775 176.145036,62.1172892 175.671032,62.0968019 C175.197028,62.0763145 174.748117,62.3106406 174.493399,62.7115118 L173.12858,64.7516092 C172.939283,65.0545515 172.878004,65.4204339 172.958242,65.7686543 C173.03848,66.1168748 173.253653,66.4188648 173.556359,66.6080978 Z" id="Path" fill="#000000"></path>
                <path d="M178.689709,74.5032749 C178.980132,74.7064625 179.344297,74.7734502 179.68786,74.6868836 L182.234164,74.1156564 C182.57862,74.0343488 182.878074,73.8222225 183.069352,73.5240281 C183.255773,73.2263489 183.31452,72.8659825 183.232316,72.5243804 C183.060812,71.8149098 182.356058,71.3715162 181.643422,71.5247326 L179.178599,72.0755589 C178.835156,72.1533515 178.536797,72.3649445 178.349489,72.6635565 C178.16218,72.9621684 178.10135,73.3232019 178.180448,73.6668349 C178.235364,74.0012782 178.417987,74.3012282 178.689709,74.5032749 Z" id="Path" fill="#000000"></path>
            </g>
            <g id="Group-15" transform="translate(422.097687, 393.259699)">
                <path d="M71.9488671,177.740301 C71.6029021,177.740301 71.259868,177.676815 70.9370049,177.55238 C51.8810295,170.177665 36.350547,158.975798 24.7850992,144.258451 C15.3624185,132.27282 8.51288962,117.903813 4.41965513,101.550186 C-2.7961587,72.7296707 0.807169652,46.2054459 1.60383945,41.1774393 C1.79368897,39.9941963 2.71347903,39.0623821 3.89312049,38.8582311 C22.3309899,35.6040062 23.69998,19.8691412 23.6770872,15.1207229 C23.6780771,13.8540187 24.5256568,12.7446148 25.7465972,12.4119244 L71.2254543,0.0962873503 C71.7038623,-0.0320957834 72.2076075,-0.0320957834 72.6860156,0.0962873503 L118.155715,12.3981742 C119.376656,12.7308646 120.224236,13.8402685 120.225226,15.1069727 C120.225226,19.855391 121.571323,35.5902559 140.009192,38.8444809 C141.189514,39.0473269 142.109935,39.9797807 142.298473,41.163689 C143.095143,46.2054459 146.698471,72.7159204 139.482658,101.536436 C135.389423,117.890062 128.539894,132.245319 119.117214,144.244701 C107.551766,158.962047 92.0212832,170.163915 72.9653079,177.53863 C72.6419346,177.668424 72.2972477,177.736813 71.9488671,177.740301 Z" id="Path" fill="url(#linearGradient-1)"></path>
                <path d="M71.3249126,165.619512 C54.9596763,158.645142 41.7061721,148.445125 31.9126941,135.303943 C23.3611593,123.83294 17.3210077,109.934672 13.9572206,94.0679791 C9.9335081,75.0857622 10.7492494,57.5626569 11.5970703,48.8033984 L11.5970703,48.8033984 C11.6564871,48.1775873 12.070275,47.6418646 12.6602837,47.426878 L12.6602837,47.426878 C27.9393926,41.8060861 32.5680368,29.1375096 33.9703786,22.0759597 L33.9703786,22.0759597 C34.0904486,21.4674111 34.5453185,20.9799648 35.1435795,20.8187377 L71.5357221,10.9628513 C71.8160659,10.8848001 72.112365,10.8848001 72.3927088,10.9628513 L108.771103,20.8141493 C109.369364,20.9753764 109.824234,21.4628227 109.944304,22.0713713 L109.944304,22.0713713 C111.346646,29.1375096 115.97529,41.8014977 131.24065,47.426878 L131.24065,47.426878 C131.830659,47.6418646 132.244447,48.1775873 132.303864,48.8033984 L132.303864,48.8033984 C133.151685,57.5580685 133.972009,75.0811738 129.943713,94.0633907 C126.579926,109.930083 120.539775,123.805409 111.98824,135.299355 C102.20851,148.440537 88.9550061,158.640553 72.5760214,165.614924 L72.5760214,165.614924 C72.1675716,165.789101 71.7058655,165.789101 71.2974157,165.614924 L71.3249126,165.619512 Z" id="Path" fill-opacity="0.196371012" fill="#000000"></path>
                <path d="M72.4934703,163.564694 C56.760591,156.786139 44.012714,146.931833 34.6104131,134.271819 C26.30809,123.094756 20.4384983,109.57884 17.1613856,94.1039633 C13.3000523,75.8737254 13.9938143,58.998283 14.8062462,50.2424595 C30.3793776,44.2923442 35.3772027,31.376017 36.9792452,23.8102166 L72.4934703,14.1756068 L108.01226,23.8102166 C109.614302,31.376017 114.612127,44.2831902 130.189823,50.2424595 C130.99769,58.998283 131.691452,75.8737254 127.830119,94.1039633 C124.553006,109.57884 118.701672,123.094756 110.381092,134.271819 C100.978791,146.931833 88.2309138,156.786139 72.4934703,163.564694 Z" id="Path" fill="#EDEDED"></path>
            </g>
            <g id="Group-35" transform="translate(468.865939, 437.694774)">
                <path d="M8.72002218,33.3322879 L8.72002218,19.775474 C8.65895061,13.6717971 11.8952802,8.00557409 17.1957317,4.93605221 C22.4961831,1.86653032 29.0442894,1.86653032 34.3447408,4.93605221 C39.6451922,8.00557409 42.8815218,13.6717971 42.8204503,19.775474 L42.8204503,33.3322879 L45.6363612,33.3322879 L45.6363612,19.775474 C45.6363612,8.8537813 36.7416155,0 25.7693906,0 C14.7971657,0 5.90241998,8.8537813 5.90241998,19.775474 L5.90241998,33.3322879 L8.72002218,33.3322879 Z" id="Path" fill="url(#linearGradient-2)"></path>
                <path d="M12.3105201,33.3322879 L12.3105201,19.775474 C12.2562134,14.9531401 14.8096773,10.4738075 18.9964467,8.04690083 C23.183216,5.61999414 28.3572565,5.61999414 32.5440258,8.04690083 C36.7307951,10.4738075 39.2842591,14.9531401 39.2299524,19.775474 L39.2299524,33.3322879 L42.8204503,33.3322879 L42.8204503,19.775474 C42.8815218,13.6717971 39.6451922,8.00557409 34.3447408,4.93605221 C29.0442894,1.86653032 22.4961831,1.86653032 17.1957317,4.93605221 C11.8952802,8.00557409 8.65895061,13.6717971 8.72002218,19.775474 L8.72002218,33.3322879 L12.3105201,33.3322879 Z" id="Path" fill="url(#linearGradient-3)"></path>
                <path d="M5.34600274,72.0566625 C5.08555211,72.0465618 4.7405396,72.0196266 4.48178021,71.9876411 C4.2026662,71.943008 3.9277458,71.875439 3.65983863,71.7856272 C3.39691287,71.6986625 3.14130377,71.5911481 2.89539914,71.4640885 C2.16032955,71.0881805 1.52336819,70.5469513 1.03503754,69.88333 C0.706949342,69.4401091 0.451241286,68.9480928 0.277363002,68.4254633 C0.206331014,68.1830466 0.126842836,67.8564575 0.0761057017,67.6089906 C0.0284655321,67.3241387 0.00506951757,67.0358366 0.00506951757,66.7470647 L51.5201776,66.7470647 C51.5201776,69.6794746 49.131991,72.0566625 46.1860135,72.0566625 L5.34600274,72.0566625" id="Path" fill="#3A3A3A"></path>
                <path d="M46.1927785,72.0566625 L5.34600274,72.0566625 C5.08555211,72.0465618 4.7405396,72.0196266 4.48178021,71.9876411 C4.2026662,71.943008 3.9277458,71.875439 3.65983863,71.7856272 C3.39691287,71.6986625 3.14130377,71.5911481 2.89539914,71.4640885 C2.16032955,71.0881805 1.52336819,70.5469513 1.03503754,69.88333 C0.706949342,69.4401091 0.451241286,68.9480928 0.277363002,68.4254633 L0.277363002,68.4254633 C0.206331014,68.1830466 0.126842836,67.8564575 0.0761057017,67.6089906 C0.0284655321,67.3241387 0.00506951757,67.0358366 0.00506951757,66.7470647 L26.1008732,66.7470647 C27.8885116,66.8851075 32.0726339,67.2083297 36.5205894,66.7470647 L51.5201776,66.7470647 C51.5201776,69.6794746 49.131991,72.0566625 46.1860135,72.0566625" id="Path" fill="#3A3A3A"></path>
                <path d="M46.1927785,72.0566625 L5.34600274,72.0566625 C5.08555211,72.0465618 4.7405396,72.0196266 4.48178021,71.9876411 C4.2026662,71.943008 3.9277458,71.875439 3.65983863,71.7856272 C3.39691287,71.6986625 3.14130377,71.5911481 2.89539914,71.4640885 C2.16032955,71.0881805 1.52336819,70.5469513 1.03503754,69.88333 C0.706949342,69.4401091 0.451241286,68.9480928 0.277363002,68.4254633 L0.277363002,68.4254633 C0.206331014,68.1830466 0.126842836,67.8564575 0.0761057017,67.6089906 C0.0284655321,67.3241387 0.00506951757,67.0358366 0.00506951757,66.7470647 L23.4574685,66.7470647 C30.3695575,67.6662278 36.0876325,67.0450352 38.835894,66.7470647 L51.5201776,66.7470647 C51.5201776,69.6794746 49.131991,72.0566625 46.1860135,72.0566625" id="Path" fill="#383838"></path>
                <path d="M46.1927785,72.0566625 L5.34600274,72.0566625 C5.08555211,72.0465618 4.7405396,72.0196266 4.48178021,71.9876411 C4.2026662,71.943008 3.9277458,71.875439 3.65983863,71.7856272 C3.39691287,71.6986625 3.14130377,71.5911481 2.89539914,71.4640885 C2.16032955,71.0881805 1.52336819,70.5469513 1.03503754,69.88333 C0.706949342,69.4401091 0.451241286,68.9480928 0.277363002,68.4254633 L0.277363002,68.4254633 C0.206331014,68.1830466 0.126842836,67.8564575 0.0761057017,67.6089906 C0.0284655321,67.3241387 0.00506951757,67.0358366 0.00506951757,66.7470647 L21.5565172,66.7470647 C28.7003057,67.7116809 35.0221527,67.7116809 40.3461693,66.7470647 L51.5201776,66.7470647 C51.5201776,69.6794746 49.131991,72.0566625 46.1860135,72.0566625" id="Path" fill="#373737"></path>
                <path d="M46.1927785,72.0566625 L5.34600274,72.0566625 C5.08555211,72.0465618 4.7405396,72.0196266 4.48178021,71.9876411 C4.2026662,71.943008 3.9277458,71.875439 3.65983863,71.7856272 C3.39691287,71.6986625 3.14130377,71.5911481 2.89539914,71.4640885 C2.16032955,71.0881805 1.52336819,70.5469513 1.03503754,69.88333 C0.706949342,69.4401091 0.451241286,68.9480928 0.277363002,68.4254633 L0.277363002,68.4254633 C0.206331014,68.1830466 0.126842836,67.8564575 0.0761057017,67.6089906 C0.0284655321,67.3241387 0.00506951757,67.0358366 0.00506951757,66.7470647 L19.8754268,66.7470647 C20.3185311,66.8329206 30.8380303,68.8261241 41.7634266,66.7470647 L51.5201776,66.7470647 C51.5201776,69.6794746 49.131991,72.0566625 46.1860135,72.0566625" id="Path" fill="#363636"></path>
                <path d="M46.1927785,72.0566625 L5.34600274,72.0566625 C5.08555211,72.0465618 4.7405396,72.0196266 4.48178021,71.9876411 C4.2026662,71.943008 3.9277458,71.875439 3.65983863,71.7856272 C3.39691287,71.6986625 3.14130377,71.5911481 2.89539914,71.4640885 C2.16032955,71.0881805 1.52336819,70.5469513 1.03503754,69.88333 C0.706949342,69.4401091 0.451241286,68.9480928 0.277363002,68.4254633 L0.277363002,68.4254633 C0.206331014,68.1830466 0.126842836,67.8564575 0.0761057017,67.6089906 C0.0284655321,67.3241387 0.00506951757,67.0358366 0.00506951757,66.7470647 L18.4666257,66.7470647 C27.5232042,68.5231033 37.8059301,68.071939 42.8830261,66.7470647 L51.5201776,66.7470647 C51.5201776,69.6794746 49.131991,72.0566625 46.1860135,72.0566625" id="Path" fill="#343434"></path>
                <path d="M46.1927785,72.0566625 L5.34600274,72.0566625 C5.08555211,72.0465618 4.7405396,72.0196266 4.48178021,71.9876411 C4.2026662,71.943008 3.9277458,71.875439 3.65983863,71.7856272 C3.39691287,71.6986625 3.14130377,71.5911481 2.89539914,71.4640885 C2.16032955,71.0881805 1.52336819,70.5469513 1.03503754,69.88333 C0.706949342,69.4401091 0.451241286,68.9480928 0.277363002,68.4254633 L0.277363002,68.4254633 C0.206331014,68.1830466 0.126842836,67.8564575 0.0761057017,67.6089906 C0.0284655321,67.3241387 0.00506951757,67.0358366 0.00506951757,66.7470647 L17.0865757,66.7470647 C29.3176075,69.2015332 39.703499,67.9019107 43.9112987,66.7470647 L51.5218688,66.7470647 C51.5218688,69.6794746 49.1336822,72.0566625 46.1877048,72.0566625" id="Path" fill="#333333"></path>
                <path d="M46.1927785,72.0566625 L5.34600274,72.0566625 C5.08555211,72.0465618 4.7405396,72.0196266 4.48178021,71.9876411 C4.2026662,71.943008 3.9277458,71.875439 3.65983863,71.7856272 C3.39691287,71.6986625 3.14130377,71.5911481 2.89539914,71.4640885 C2.16032955,71.0881805 1.52336819,70.5469513 1.03503754,69.88333 C0.706949342,69.4401091 0.451241286,68.9480928 0.277363002,68.4254633 L0.277363002,68.4254633 C0.206331014,68.1830466 0.126842836,67.8564575 0.0761057017,67.6089906 C0.0284655321,67.3241387 0.00506951757,67.0358366 0.00506951757,66.7470647 L15.8705757,66.7470647 C24.157641,68.9018793 39.0608286,68.9018793 44.866848,66.7470647 L51.5201776,66.7470647 C51.5201776,69.6794746 49.131991,72.0566625 46.1860135,72.0566625" id="Path" fill="#323232"></path>
                <path d="M46.1927785,72.0566625 L5.34600274,72.0566625 C5.08555211,72.0465618 4.7405396,72.0196266 4.48178021,71.9876411 C4.2026662,71.943008 3.9277458,71.875439 3.65983863,71.7856272 C3.39691287,71.6986625 3.14130377,71.5911481 2.89539914,71.4640885 C2.16032955,71.0881805 1.52336819,70.5469513 1.03503754,69.88333 C0.706949342,69.4401091 0.451241286,68.9480928 0.277363002,68.4254633 L0.277363002,68.4254633 C0.206331014,68.1830466 0.126842836,67.8564575 0.0761057017,67.6089906 C0.0284655321,67.3241387 0.00506951757,67.0358366 0.00506951757,66.7470647 L14.7120778,66.7470647 C23.8718218,69.1762815 39.5106979,69.1762815 45.6972458,66.7470647 L51.5235601,66.7470647 C51.5235601,69.6794746 49.1353735,72.0566625 46.189396,72.0566625" id="Path" fill="#313131"></path>
                <path d="M46.1927785,72.0566625 L5.34600274,72.0566625 C5.08555211,72.0465618 4.7405396,72.0196266 4.48178021,71.9876411 C4.2026662,71.943008 3.9277458,71.875439 3.65983863,71.7856272 C3.39691287,71.6986625 3.14130377,71.5911481 2.89539914,71.4640885 C2.16032955,71.0881805 1.52336819,70.5469513 1.03503754,69.88333 C0.706949342,69.4401091 0.451241286,68.9480928 0.277363002,68.4254633 L0.277363002,68.4254633 C0.206331014,68.1830466 0.126842836,67.8564575 0.0761057017,67.6089906 C0.0284655321,67.3241387 0.00506951757,67.0358366 0.00506951757,66.7470647 L13.5772572,66.7470647 C24.3013962,69.669532 40.6370622,69.1897491 46.473524,66.7470647 L51.5201776,66.7470647 C51.5201776,69.6794746 49.131991,72.0566625 46.1860135,72.0566625" id="Path" fill="#2F2F2F"></path>
                <path d="M46.1927785,72.0566625 L5.34600274,72.0566625 C5.08555211,72.0465618 4.7405396,72.0196266 4.48178021,71.9876411 C4.2026662,71.943008 3.9277458,71.875439 3.65983863,71.7856272 C3.39691287,71.6986625 3.14130377,71.5911481 2.89539914,71.4640885 C2.16032955,71.0881805 1.52336819,70.5469513 1.03503754,69.88333 C0.706949342,69.4401091 0.451241286,68.9480928 0.277363002,68.4254633 L0.277363002,68.4254633 C0.206331014,68.1830466 0.126842836,67.8564575 0.0761057017,67.6089906 C0.0284655321,67.3241387 0.00506951757,67.0358366 0.00506951757,66.7470647 L12.5134686,66.7470647 C20.6652349,69.4776188 40.6945643,69.9456176 47.2075212,66.7470647 L51.5320163,66.7470647 C51.5320163,69.6794746 49.1438297,72.0566625 46.1978522,72.0566625" id="Path" fill="#2E2E2E"></path>
                <path d="M46.1927785,72.0566625 L5.34600274,72.0566625 C5.08555211,72.0465618 4.7405396,72.0196266 4.48178021,71.9876411 C4.2026662,71.943008 3.9277458,71.875439 3.65983863,71.7856272 C3.39691287,71.6986625 3.14130377,71.5911481 2.89539914,71.4640885 C2.16032955,71.0881805 1.52336819,70.5469513 1.03503754,69.88333 C0.706949342,69.4401091 0.451241286,68.9480928 0.277363002,68.4254633 L0.277363002,68.4254633 C0.206331014,68.1830466 0.126842836,67.8564575 0.0761057017,67.6089906 C0.0284655321,67.3241387 0.00506951757,67.0358366 0.00506951757,66.7470647 L11.4615187,66.7470647 C20.7954602,69.9641355 42.2234433,69.9641355 47.853574,66.7470647 L51.5201776,66.7470647 C51.5201776,69.6794746 49.131991,72.0566625 46.1860135,72.0566625" id="Path" fill="#2D2D2D"></path>
                <path d="M46.1927785,72.0566625 L5.34600274,72.0566625 C5.08555211,72.0465618 4.7405396,72.0196266 4.48178021,71.9876411 C4.2026662,71.943008 3.9277458,71.875439 3.65983863,71.7856272 C3.39691287,71.6986625 3.14130377,71.5911481 2.89539914,71.4640885 C2.16032955,71.0881805 1.52336819,70.5469513 1.03503754,69.88333 C0.706949342,69.4401091 0.451241286,68.9480928 0.277363002,68.4254633 L0.277363002,68.4254633 C0.206331014,68.1830466 0.126842836,67.8564575 0.0761057017,67.6089906 C0.0284655321,67.3241387 0.00506951757,67.0358366 0.00506951757,66.7470647 L10.4569234,66.7470647 C20.0242557,70.2688398 42.7595657,70.2688398 48.4641109,66.7470647 L51.5201776,66.7470647 C51.5201776,69.6794746 49.131991,72.0566625 46.1860135,72.0566625" id="Path" fill="#2C2C2C"></path>
                <path d="M46.1927785,72.0566625 L5.34600274,72.0566625 C5.08555211,72.0465618 4.7405396,72.0196266 4.48178021,71.9876411 C4.2026662,71.943008 3.9277458,71.875439 3.65983863,71.7856272 C3.39691287,71.6986625 3.14130377,71.5911481 2.89539914,71.4640885 C2.16032955,71.0881805 1.52336819,70.5469513 1.03503754,69.88333 C0.706949342,69.4401091 0.451241286,68.9480928 0.277363002,68.4254633 L0.277363002,68.4254633 C0.206331014,68.1830466 0.126842836,67.8564575 0.0761057017,67.6089906 C0.0284655321,67.3241387 0.00506951757,67.0358366 0.00506951757,66.7470647 L9.44218073,66.7470647 C17.8628538,70.344595 43.7438661,70.9556869 49.0323668,66.7470647 L51.5201776,66.7470647 C51.5201776,69.6794746 49.131991,72.0566625 46.1860135,72.0566625" id="Path" fill="#2A2A2A"></path>
                <path d="M46.1927785,72.0566625 L5.34600274,72.0566625 C5.08555211,72.0465618 4.7405396,72.0196266 4.48178021,71.9876411 C4.2026662,71.943008 3.9277458,71.875439 3.65983863,71.7856272 C3.39691287,71.6986625 3.14130377,71.5911481 2.89539914,71.4640885 C2.16032955,71.0881805 1.52336819,70.5469513 1.03503754,69.88333 C0.706949342,69.4401091 0.451241286,68.9480928 0.277363002,68.4254633 L0.277363002,68.4254633 C0.206331014,68.1830466 0.126842836,67.8564575 0.0761057017,67.6089906 C0.0284655321,67.3241387 0.00506951757,67.0358366 0.00506951757,66.7470647 L8.46126279,66.7470647 C17.1085617,70.5987958 44.3713153,71.248607 49.5583417,66.7470647 L51.5167951,66.7470647 C51.5167951,69.6794746 49.1286085,72.0566625 46.182631,72.0566625" id="Path" fill="#292929"></path>
                <path d="M46.1927785,72.0566625 L5.34600274,72.0566625 C5.08555211,72.0465618 4.7405396,72.0196266 4.48178021,71.9876411 C4.2026662,71.943008 3.9277458,71.875439 3.65983863,71.7856272 C3.39691287,71.6986625 3.14130377,71.5911481 2.89539914,71.4640885 C2.16032955,71.0881805 1.52336819,70.5469513 1.03503754,69.88333 C0.706949342,69.4401091 0.451241286,68.9480928 0.277363002,68.4254633 L0.277363002,68.4254633 C0.206331014,68.1830466 0.126842836,67.8564575 0.0761057017,67.6089906 C0.0284655321,67.3241387 0.00506951757,67.0358366 0.00506951757,66.7470647 L7.52262581,66.7470647 C15.6405673,70.8715145 45.4401776,71.6155989 50.0301971,66.7470647 L51.5201776,66.7470647 C51.5201776,69.6794746 49.131991,72.0566625 46.1860135,72.0566625" id="Path" fill="#282828"></path>
                <path d="M46.1927785,72.0566625 L5.34600274,72.0566625 C5.08555211,72.0465618 4.7405396,72.0196266 4.48178021,71.9876411 C4.2026662,71.943008 3.9277458,71.875439 3.65983863,71.7856272 C3.39691287,71.6986625 3.14130377,71.5911481 2.89539914,71.4640885 C2.16032955,71.0881805 1.52336819,70.5469513 1.03503754,69.88333 C0.706949342,69.4401091 0.451241286,68.9480928 0.277363002,68.4254633 L0.277363002,68.4254633 C0.206331014,68.1830466 0.126842836,67.8564575 0.0761057017,67.6089906 C0.0284655321,67.3241387 0.00506951757,67.0358366 0.00506951757,66.7470647 L6.50788312,66.7470647 C14.3603003,71.1459167 46.4464641,71.9876411 50.4682277,66.7470647 L51.5201776,66.7470647 C51.5201776,69.6794746 49.131991,72.0566625 46.1860135,72.0566625" id="Path" fill="#262626"></path>
                <path d="M46.1927785,72.0566625 L5.34600274,72.0566625 C5.08555211,72.0465618 4.7405396,72.0196266 4.48178021,71.9876411 C4.2026662,71.943008 3.9277458,71.875439 3.65983863,71.7856272 C3.39691287,71.6986625 3.14130377,71.5911481 2.89539914,71.4640885 C2.16032955,71.0881805 1.52336819,70.5469513 1.03503754,69.88333 C0.706949342,69.4401091 0.451241286,68.9480928 0.277363002,68.4254633 L0.277363002,68.4254633 C0.206331014,68.1830466 0.126842836,67.8564575 0.0761057017,67.6089906 C0.0284655321,67.3241387 0.00506951757,67.0358366 0.00506951757,66.7470647 L5.55571623,66.7470647 C12.6995048,71.3714988 47.5457687,72.452273 50.8589036,66.7470647 L51.5201776,66.7470647 C51.5201776,69.6794746 49.131991,72.0566625 46.1860135,72.0566625" id="Path" fill="#252525"></path>
                <path d="M46.1927785,72.0566625 L5.34600274,72.0566625 C5.08555211,72.0465618 4.7405396,72.0196266 4.48178021,71.9876411 C4.2026662,71.943008 3.9277458,71.875439 3.65983863,71.7856272 C3.39691287,71.6986625 3.14130377,71.5911481 2.89539914,71.4640885 C2.16032955,71.0881805 1.52336819,70.5469513 1.03503754,69.88333 C0.706949342,69.4401091 0.451241286,68.9480928 0.277363002,68.4254633 L0.277363002,68.4254633 C0.206331014,68.1830466 0.126842836,67.8564575 0.0761057017,67.6089906 C0.0284655321,67.3241387 0.00506951757,67.0358366 0.00506951757,66.7470647 L4.5392823,66.7470647 C10.7681112,71.315945 49.0188369,72.7754952 51.1616352,66.7470647 L51.5201776,66.7470647 C51.5201776,69.6794746 49.131991,72.0566625 46.1860135,72.0566625" id="Path" fill="#242424"></path>
                <path d="M46.1927785,72.0566625 L5.34600274,72.0566625 C5.08555211,72.0465618 4.7405396,72.0196266 4.48178021,71.9876411 C4.2026662,71.943008 3.9277458,71.875439 3.65983863,71.7856272 C3.39691287,71.6986625 3.14130377,71.5911481 2.89539914,71.4640885 C2.16032955,71.0881805 1.52336819,70.5469513 1.03503754,69.88333 C0.706949342,69.4401091 0.451241286,68.9480928 0.277363002,68.4254633 L0.277363002,68.4254633 C0.206331014,68.1830466 0.126842836,67.8564575 0.0761057017,67.6089906 C0.0284655321,67.3241387 0.00506951757,67.0358366 0.00506951757,66.7470647 L3.51777466,66.7470647 C8.11963276,71.1728518 50.0166672,73.7165431 51.4271595,66.7470647 C51.4643947,68.1504856 50.9270066,69.5087029 49.9383472,70.5099515 C48.9496878,71.5112002 47.5946692,72.0694869 46.1843223,72.0566625" id="Path" fill="#232323"></path>
                <path d="M46.1927785,72.0566625 L5.34600274,72.0566625 C5.08555211,72.0465618 4.7405396,72.0196266 4.48178021,71.9876411 C4.2026662,71.943008 3.9277458,71.875439 3.65983863,71.7856272 C3.39691287,71.6986625 3.14130377,71.5911481 2.89539914,71.4640885 C2.16032955,71.0881805 1.52336819,70.5469513 1.03503754,69.88333 C0.706949342,69.4401091 0.451241286,68.9480928 0.277363002,68.4254633 L0.277363002,68.4254633 C0.206331014,68.1830466 0.126842836,67.8564575 0.0761057017,67.6089906 C0.0284655321,67.3241387 0.00506951757,67.0358366 0.00506951757,66.7470647 L2.32376076,66.7470647 C4.20779969,68.9355483 7.73572177,71.0802621 28.0305756,71.1762187 C46.5276436,71.2637581 51.1379579,70.4405516 51.5235601,66.9793807 C51.3986327,69.818734 49.0496945,72.0566625 46.1944697,72.0566625" id="Path" fill="#212121"></path>
                <path d="M0.0118386647,30.6219352 C0.0202948538,30.5158779 0.0321335185,30.3761516 0.0405897076,30.2700943 C0.0593567142,30.1558863 0.0870646768,30.0433135 0.123460361,29.9334046 C0.195037416,29.7213835 0.29884489,29.5215376 0.431265643,29.3408306 C0.562205497,29.1611214 0.720889137,29.0031686 0.901429756,28.8728318 C1.08297288,28.7410209 1.28374338,28.6376915 1.49674547,28.5664441 C1.60712612,28.5300886 1.72023003,28.5025058 1.83499303,28.4839551 C1.93984978,28.4839551 2.10897356,28.3846316 2.1867705,28.4570199 L49.3587757,28.4570199 C49.9348449,28.4574653 50.4870922,28.6859122 50.8937998,29.0920098 C51.3005074,29.4981074 51.5282897,30.0485204 51.5269485,30.6219352 L0.0118386647,30.6219352" id="Path" fill="#3A3A3A"></path>
                <path d="M51.5269486,30.6219352 L36.5290456,30.6219352 C38.3657299,30.4855758 42.1862361,30.2027564 42.2792542,29.7802107 C42.5041888,28.6994365 22.4647119,28.5597103 18.9723058,29.6118658 C19.3105534,29.8610163 19.8805005,30.2852454 26.1144031,30.6219352 L0.018603616,30.6219352 L0.0473546589,30.2700943 C0.0661216655,30.1558863 0.0938296281,30.0433135 0.130225312,29.9334046 C0.201802367,29.7213835 0.305609841,29.5215376 0.438030594,29.3408306 C0.568970448,29.1611214 0.727654088,29.0031686 0.908194707,28.8728318 C1.08973784,28.7410209 1.29050833,28.6376915 1.50351042,28.5664441 C1.61389108,28.5300886 1.72699498,28.5025058 1.84175798,28.4839551 L1.84175798,28.4839551 L2.19353545,28.4570199 L49.3655406,28.4570199 C50.5625991,28.4616602 51.5297507,29.4303839 51.5269486,30.6219352" id="Path" fill="#3A3A3A"></path>
                <path d="M51.5269485,30.6219352 L38.8426589,30.6219352 C42.2775629,30.2229578 42.9016297,30.1505695 43.4884892,29.6320672 C41.4285615,28.6842855 20.0851403,28.6775517 17.5364449,29.62365 C18.326253,30.1067998 19.2953322,30.2364254 23.4557773,30.6219352 L0.0118386647,30.6219352 L0.0405897076,30.2700943 C0.0593567142,30.1558863 0.0870646768,30.0433135 0.123460361,29.9334046 C0.195037416,29.7213835 0.29884489,29.5215376 0.431265643,29.3408306 C0.562205497,29.1611214 0.720889137,29.0031686 0.901429756,28.8728318 C1.08297288,28.7410209 1.28374338,28.6376915 1.49674547,28.5664441 C1.60712612,28.5300886 1.72023003,28.5025058 1.83499303,28.4839551 L1.83499303,28.4839551 L2.1867705,28.4570199 L49.3587757,28.4570199 C49.9348449,28.4574653 50.4870922,28.6859122 50.8937998,29.0920098 C51.3005074,29.4981074 51.5282897,30.0485204 51.5269485,30.6219352" id="Path" fill="#383838"></path>
                <path d="M51.5270224,30.6219352 L40.3529343,30.6219352 C41.602759,30.4653744 44.1988091,30.1421522 44.3171957,29.7802107 C44.3307484,29.651914 44.2786465,29.5254215 44.1785142,29.4435209 C44.0719663,29.3526147 19.1481946,28.0731936 16.2494129,29.6118658 C16.6214853,29.8441818 17.1846675,30.1926557 21.5632822,30.6084676 L0.0118386647,30.6084676 L0.0405897076,30.2566268 C0.0593567142,30.1424187 0.0870646768,30.0298459 0.123460361,29.919937 C0.195037416,29.7079159 0.29884489,29.50807 0.431265643,29.327363 C0.562205497,29.1476538 0.720889137,28.989701 0.901429756,28.8593642 C1.08297288,28.7275533 1.28374338,28.6242239 1.49674547,28.5529765 C1.60712612,28.516621 1.72023003,28.4890382 1.83499303,28.4704875 L1.83499303,28.4704875 L2.1867705,28.4435523 L49.3587757,28.4435523 C49.9372025,28.4439799 50.4915164,28.6742745 50.8986163,29.0832925 C51.3057162,29.4923106 51.5319019,30.0461933 51.5270224,30.6219352" id="Path" fill="#373737"></path>
                <path d="M51.5269531,30.6219352 L41.7718828,30.6219352 C43.3633376,30.362684 45.3454683,30.0411453 45.3234822,29.6320672 C45.2659802,28.4839551 15.7843225,28.337495 15.2803337,29.4822403 C15.2557485,29.5851074 15.2780288,29.6935313 15.3412182,29.7785273 C15.5475492,30.0630301 17.0882669,30.2616771 19.8821918,30.6202517 L0.0118386647,30.6202517 L0.0405897076,30.2684109 C0.0593567142,30.1542029 0.0870646768,30.04163 0.123460361,29.9317211 C0.195037416,29.7197 0.29884489,29.5198542 0.431265643,29.3391471 C0.562205497,29.159438 0.720889137,29.0014851 0.901429756,28.8711483 C1.08297288,28.7393374 1.28374338,28.636008 1.49674547,28.5647606 C1.60712612,28.5284052 1.72023003,28.5008223 1.83499303,28.4822716 L1.83499303,28.4822716 L2.1867705,28.4553365 L49.3587757,28.4553365 C49.9351387,28.4557808 50.4876433,28.6844588 50.8943997,29.0909209 C51.301156,29.4973831 51.5287396,30.0482291 51.5269531,30.6219352" id="Path" fill="#363636"></path>
                <path d="M51.5269531,30.6219352 L42.889791,30.6219352 C44.6233098,30.3121806 45.7648953,30.1084833 45.9492402,29.7802107 C46.0045286,29.6898425 46.0139243,29.5788605 45.9746088,29.4805568 C45.3674544,28.5041565 14.365374,28.5041565 14.0778636,29.4805568 C13.9662419,29.8593328 14.5531014,30.1017495 18.4750819,30.6202517 L0.0118386647,30.6202517 L0.0405897076,30.2684109 C0.0593567142,30.1542029 0.0870646768,30.04163 0.123460361,29.9317211 C0.195037416,29.7197 0.29884489,29.5198542 0.431265643,29.3391471 C0.562205497,29.159438 0.720889137,29.0014851 0.901429756,28.8711483 C1.08297288,28.7393374 1.28374338,28.636008 1.49674547,28.5647606 C1.60712612,28.5284052 1.72023003,28.5008223 1.83499303,28.4822716 L1.83499303,28.4822716 L2.1867705,28.4553365 L49.3587757,28.4553365 C49.9351387,28.4557808 50.4876433,28.6844588 50.8943997,29.0909209 C51.301156,29.4973831 51.5287396,30.0482291 51.5269531,30.6219352" id="Path" fill="#343434"></path>
                <path d="M51.5269485,30.6219352 L43.9163724,30.6219352 C45.0765615,30.4030868 47.0164113,30.0394619 46.7407395,29.4839237 C46.2857966,28.5647606 13.1223142,28.5647606 12.9464255,29.4839237 C12.8872322,29.7852611 13.156139,30.0613467 17.0916494,30.6219352 L0.0101474269,30.6219352 L0.0388984698,30.2700943 C0.0576654764,30.1558863 0.085373439,30.0433135 0.121769123,29.9334046 C0.193346178,29.7213835 0.297153652,29.5215376 0.429574405,29.3408306 C0.560514259,29.1611214 0.719197899,29.0031686 0.899738518,28.8728318 C1.08128165,28.7410209 1.28205214,28.6376915 1.49505423,28.5664441 C1.60543489,28.5300886 1.71853879,28.5025058 1.83330179,28.4839551 L1.83330179,28.4839551 L2.18507926,28.4570199 L49.3570844,28.4570199 C49.9334467,28.4570199 50.4861289,28.685268 50.8932024,29.0914142 C51.3002759,29.4975604 51.5282902,30.0482288 51.5269485,30.6219352" id="Path" fill="#333333"></path>
                <path d="M51.5269485,30.6219352 L44.873613,30.6219352 C45.947549,30.3711013 47.4189259,30.0293612 47.4865754,29.6337507 C47.7622472,28.0125894 12.3815521,28.9603711 11.9604338,29.3374637 C11.8782258,29.4108596 11.8371883,29.5195795 11.8505034,29.6287003 C11.9841112,29.983908 14.4211849,30.3828854 15.8773406,30.6219352 L0.0118386647,30.6219352 L0.0405897076,30.2700943 C0.0593567142,30.1558863 0.0870646768,30.0433135 0.123460361,29.9334046 C0.195037416,29.7213835 0.29884489,29.5215376 0.431265643,29.3408306 C0.562205497,29.1611214 0.720889137,29.0031686 0.901429756,28.8728318 C1.08297288,28.7410209 1.28374338,28.6376915 1.49674547,28.5664441 C1.60712612,28.5300886 1.72023003,28.5025058 1.83499303,28.4839551 L1.83499303,28.4839551 L2.1867705,28.4570199 L49.3587757,28.4570199 C49.9348449,28.4574653 50.4870922,28.6859122 50.8937998,29.0920098 C51.3005074,29.4981074 51.5282897,30.0485204 51.5269485,30.6219352" id="Path" fill="#323232"></path>
                <path d="M51.5269485,30.6219352 L45.7006283,30.6219352 C46.8692736,30.3273316 48.1952041,29.9956922 48.0497576,29.4839237 C47.6168007,27.943568 11.143566,28.9788891 10.8763504,29.3408306 C10.8250387,29.4291235 10.8212345,29.5370447 10.866203,29.6287003 C11.0894464,30.0074763 13.7227036,30.4535903 14.7154602,30.6219352 L0.0118386647,30.6219352 L0.0405897076,30.2700943 C0.0593567142,30.1558863 0.0870646768,30.0433135 0.123460361,29.9334046 C0.195037416,29.7213835 0.29884489,29.5215376 0.431265643,29.3408306 C0.562205497,29.1611214 0.720889137,29.0031686 0.901429756,28.8728318 C1.08297288,28.7410209 1.28374338,28.6376915 1.49674547,28.5664441 C1.60712612,28.5300886 1.72023003,28.5025058 1.83499303,28.4839551 L1.83499303,28.4839551 L2.1867705,28.4570199 L49.3587757,28.4570199 C49.9348449,28.4574653 50.4870922,28.6859122 50.8937998,29.0920098 C51.3005074,29.4981074 51.5282897,30.0485204 51.5269485,30.6219352" id="Path" fill="#313131"></path>
                <path d="M51.5269432,30.6219352 L46.4802889,30.6219352 C46.9724391,30.4906262 48.4725671,30.0899653 48.6247785,29.6522686 C48.6542237,29.5498414 48.6427085,29.440046 48.5926449,29.3458809 C47.6709203,27.8644459 10.0070542,28.9889897 9.83962162,29.3458809 C9.81785594,29.447073 9.84404969,29.5526071 9.9106536,29.6320672 C10.2235326,30.0192605 12.7519331,30.4737917 13.5840221,30.6253021 L0.0118386647,30.6253021 L0.0405897076,30.2734612 C0.0593567142,30.1592532 0.0870646768,30.0466804 0.123460361,29.9367715 C0.195037416,29.7247504 0.29884489,29.5249045 0.431265643,29.3441975 C0.562205497,29.1644883 0.720889137,29.0065355 0.901429756,28.8761987 C1.08297288,28.7443878 1.28374338,28.6410584 1.49674547,28.569811 C1.60712612,28.5334555 1.72023003,28.5058727 1.83499303,28.487322 L1.83499303,28.487322 L2.1867705,28.4603868 L49.3587757,28.4603868 C49.9342579,28.4608331 50.4859917,28.6888178 50.8926019,29.0941868 C51.2992121,29.4995558 51.5269432,30.0491033 51.5269432,30.6219352" id="Path" fill="#2F2F2F"></path>
                <path d="M51.5269485,30.6219352 L47.2024475,30.6219352 C48.1968953,30.3071302 49.4331901,29.9165701 49.1220024,29.3458809 C48.4827145,28.1674667 8.64899019,28.3055095 8.91451453,29.4822403 C9.0159888,29.9334046 10.9439999,30.3239647 12.5083949,30.6219352 L0.0118386647,30.6219352 L0.0405897076,30.2700943 C0.0593567142,30.1558863 0.0870646768,30.0433135 0.123460361,29.9334046 C0.195037416,29.7213835 0.29884489,29.5215376 0.431265643,29.3408306 C0.562205497,29.1611214 0.720889137,29.0031686 0.901429756,28.8728318 C1.08297288,28.7410209 1.28374338,28.6376915 1.49674547,28.5664441 C1.60712612,28.5300886 1.72023003,28.5025058 1.83499303,28.4839551 L1.83499303,28.4839551 L2.1867705,28.4570199 L49.3587757,28.4570199 C49.9348449,28.4574653 50.4870922,28.6859122 50.8937998,29.0920098 C51.3005074,29.4981074 51.5282897,30.0485204 51.5269485,30.6219352" id="Path" fill="#2E2E2E"></path>
                <path d="M51.5269485,30.6219352 L47.860339,30.6219352 C48.5368341,30.3828854 50.3532235,29.7482252 49.3401721,29.0933636 C48.9545698,28.8442131 8.07396933,27.8913811 7.90484555,29.3458809 C7.84396099,29.8744839 9.93433093,30.3054468 11.456445,30.6219352 L0,30.6219352 L0.0287510429,30.2700943 C0.0475180495,30.1558863 0.0752260121,30.0433135 0.111621696,29.9334046 C0.183198751,29.7213835 0.287006225,29.5215376 0.419426978,29.3408306 C0.550366832,29.1611214 0.709050472,29.0031686 0.889591091,28.8728318 C1.07113422,28.7410209 1.27190472,28.6376915 1.4849068,28.5664441 C1.59528746,28.5300886 1.70839136,28.5025058 1.82315437,28.4839551 L1.82315437,28.4839551 L2.17493183,28.4570199 L49.346937,28.4570199 C49.9250557,28.4543271 50.4803511,28.6813887 50.8896232,29.0878278 C51.2988953,29.4942668 51.5283007,30.0464743 51.5269485,30.6219352" id="Path" fill="#2D2D2D"></path>
                <path d="M51.5269485,30.6219352 L48.4708758,30.6219352 C51.2309759,29.5731465 49.4737798,28.9216518 49.4568675,28.914918 C49.0154544,28.7566738 6.82414459,27.894748 6.97297352,29.3458809 C7.02709313,29.886268 9.34070646,30.3828854 10.4636884,30.6219352 L0.0118386647,30.6219352 L0.0405897076,30.2700943 C0.0593567142,30.1558863 0.0870646768,30.0433135 0.123460361,29.9334046 C0.195037416,29.7213835 0.29884489,29.5215376 0.431265643,29.3408306 C0.562205497,29.1611214 0.720889137,29.0031686 0.901429756,28.8728318 C1.08297288,28.7410209 1.28374338,28.6376915 1.49674547,28.5664441 C1.60712612,28.5300886 1.72023003,28.5025058 1.83499303,28.4839551 L1.83499303,28.4839551 L2.1867705,28.4570199 L49.3587757,28.4570199 C49.9348449,28.4574653 50.4870922,28.6859122 50.8937998,29.0920098 C51.3005074,29.4981074 51.5282897,30.0485204 51.5269485,30.6219352" id="Path" fill="#2C2C2C"></path>
                <path d="M51.5269453,30.6219352 L49.0442054,30.6219352 C51.3679662,29.6118658 50.043727,28.9502704 49.8898243,28.8795656 C49.4873097,28.6977531 6.36751038,27.8543452 6.10875099,29.2162553 C5.99543806,29.81893 8.07904305,30.3020799 9.45909311,30.6236186 L0.0219860916,30.6236186 L0.0507371345,30.2717778 C0.0695041411,30.1575698 0.0972121037,30.0449969 0.133607787,29.935088 C0.205184843,29.7230669 0.308992317,29.5232211 0.44141307,29.342514 C0.572352924,29.1628049 0.731036564,29.004852 0.911577183,28.8745152 C1.09312031,28.7427043 1.29389081,28.6393749 1.50689289,28.5681275 C1.61727355,28.5317721 1.73037745,28.5041892 1.84514046,28.4856385 L1.84514046,28.4856385 L2.19691792,28.4587034 L49.3689231,28.4587034 C50.5639975,28.4651922 51.5288233,29.4323484 51.5269453,30.6219352" id="Path" fill="#2A2A2A"></path>
                <path d="M51.5269485,30.6219352 L49.5684892,30.6219352 C51.7670983,29.4990748 50.0758605,28.7937097 50.0538744,28.7869759 C49.6547423,28.633782 5.52527395,27.9452514 5.16334905,29.0933636 C4.95701804,29.7499086 7.24188033,30.3172309 8.46971898,30.6219352 L0.0135299025,30.6219352 L0.0422809454,30.2700943 C0.061047952,30.1558863 0.0887559146,30.0433135 0.125151598,29.9334046 C0.196728654,29.7213835 0.300536128,29.5215376 0.432956881,29.3408306 C0.563896735,29.1611214 0.722580375,29.0031686 0.903120994,28.8728318 C1.08466412,28.7410209 1.28543462,28.6376915 1.49843671,28.5664441 C1.60881736,28.5300886 1.72192126,28.5025058 1.83668427,28.4839551 L1.83668427,28.4839551 L2.18846173,28.4570199 L49.3604669,28.4570199 C49.9362429,28.4579117 50.4880556,28.6865556 50.8943974,29.0926048 C51.3007392,29.4986539 51.5282896,30.0488118 51.5269485,30.6219352" id="Path" fill="#292929"></path>
                <path d="M51.5269485,30.6219352 L50.036962,30.6219352 C52.0968897,29.3879671 50.0048285,28.6421993 49.9828424,28.6354655 C49.5718716,28.5193075 4.63906533,28.0917115 4.29912653,28.9805725 C4.2128734,29.211205 4.3515549,29.8222969 7.52939076,30.6219352 L0.0118386647,30.6219352 L0.0405897076,30.2700943 C0.0593567142,30.1558863 0.0870646768,30.0433135 0.123460361,29.9334046 C0.195037416,29.7213835 0.29884489,29.5215376 0.431265643,29.3408306 C0.562205497,29.1611214 0.720889137,29.0031686 0.901429756,28.8728318 C1.08297288,28.7410209 1.28374338,28.6376915 1.49674547,28.5664441 C1.60712612,28.5300886 1.72023003,28.5025058 1.83499303,28.4839551 L1.83499303,28.4839551 L2.1867705,28.4570199 L49.3587757,28.4570199 C49.9348449,28.4574653 50.4870922,28.6859122 50.8937998,29.0920098 C51.3005074,29.4981074 51.5282897,30.0485204 51.5269485,30.6219352" id="Path" fill="#282828"></path>
                <path d="M50.0352708,28.5613937 L50.0352708,28.5613937 C49.5701804,28.4890054 3.38924058,27.8206762 3.37401944,28.9721553 C3.37401944,29.7246569 5.65380802,30.3694178 6.51464807,30.6135179 L0.0118386647,30.6135179 L0.0405897076,30.2616771 C0.0593567142,30.1474691 0.0870646768,30.0348962 0.123460361,29.9249873 C0.195037416,29.7129662 0.29884489,29.5131204 0.431265643,29.3324133 C0.562205497,29.1527042 0.720889137,28.9947513 0.901429756,28.8644145 C1.08297288,28.7326036 1.28374338,28.6292742 1.49674547,28.5580268 C1.60712612,28.5216714 1.72023003,28.4940885 1.83499303,28.4755378 L1.83499303,28.4755378 L2.1867705,28.4486027 L49.3587757,28.4486027 C49.5886174,28.4481984 49.8170299,28.4845761 50.0352708,28.5563434" id="Path" fill="#262626"></path>
                <path d="M24.4552988,28.453653 C3.31482612,28.453653 3.31482612,28.453653 2.78546868,28.4738544 C2.30008343,28.4940558 2.48950207,29.0479105 2.77193878,29.3290464 C3.38585811,29.9401384 4.29405282,30.2229578 5.56248118,30.6135179 L0.0118386647,30.6135179 C0.0118386647,30.5074606 0.0287510429,30.3677344 0.0405897076,30.2616771 C0.0593567142,30.1474691 0.0870646768,30.0348962 0.123460361,29.9249873 C0.195037416,29.7129662 0.29884489,29.5131204 0.431265643,29.3324133 C0.562205497,29.1527042 0.720889137,28.9947513 0.901429756,28.8644145 C1.08297288,28.7326036 1.28374338,28.6292742 1.49674547,28.5580268 C1.60712612,28.5216714 1.72023003,28.4940885 1.83499303,28.4755378 L1.83499303,28.4755378 C1.93984978,28.4637537 2.08191375,28.4519696 2.1867705,28.4486027 L24.4586813,28.4486027" id="Path" fill="#252525"></path>
                <path d="M0.0118386647,30.6219352 C0.0118386647,30.5158779 0.0287510429,30.3761516 0.0405897076,30.2700943 C0.0593567142,30.1558863 0.0870646768,30.0433135 0.123460361,29.9334046 C0.195037416,29.7213835 0.29884489,29.5215376 0.431265643,29.3408306 C0.562205497,29.1611214 0.720889137,29.0031686 0.901429756,28.8728318 C1.08297288,28.7410209 1.28374338,28.6376915 1.49674547,28.5664441 C1.55763003,28.5462427 1.62020583,28.5294082 1.68278163,28.5142572 L1.68278163,28.5142572 C1.34453406,28.6960696 2.32037828,29.6034486 2.33052571,29.6118658 C3.05099302,30.1404688 3.87969955,30.4030868 4.54604725,30.6219352 L0.0118386647,30.6219352" id="Path" fill="#242424"></path>
                <path d="M0.0118386647,30.6219352 C0.0118386647,30.5158779 0.0287510429,30.3761516 0.0405897076,30.2700943 C0.0593567142,30.1558863 0.0870646768,30.0433135 0.123460361,29.9334046 C0.195037416,29.7213835 0.29884489,29.5215376 0.431265643,29.3408306 C0.562205497,29.1611214 0.720889137,29.0031686 0.901429756,28.8728318 C0.991405906,28.8091552 1.08642738,28.7528553 1.18555771,28.7044869 L1.25489846,28.6691345 L1.25489846,28.6691345 C0.82870653,28.9469035 1.58130736,29.62365 1.59314602,29.6303838 C1.60498469,29.6371176 2.45905978,30.2347419 2.53178301,30.2717778 C2.84635324,30.4401227 3.19813071,30.4973599 3.52792208,30.6236186 L0.0152211403,30.6236186" id="Path" fill="#232323"></path>
                <path d="M0.0118386647,30.6219352 C0.0118386647,30.5158779 0.0287510429,30.3761516 0.0405897076,30.2700943 C0.0593567142,30.1558863 0.0870646768,30.0433135 0.123460361,29.9334046 C0.195037416,29.7213835 0.29884489,29.5215376 0.431265643,29.3408306 C0.497407728,29.2517257 0.56974456,29.1673464 0.647744084,29.0883132 C0.701863694,29.0361263 0.757674542,28.9839394 0.816867865,28.9368028 L0.816867865,28.9368028 C0.708222342,29.0413185 0.658793866,29.1927057 0.684951316,29.3408306 L1.0688623,29.9334046 C1.12974686,30.0007425 1.37497634,30.2027564 2.33052571,30.6168848 L0.0118386647,30.6168848" id="Path" fill="#212121"></path>
                <path d="M40.8095685,29.9300377 C40.0197604,30.2919792 22.9044337,31.3239333 20.3929456,29.6202831 C22.906125,28.9031339 37.5962167,28.7533069 41.119065,29.6034486 C41.048002,29.7385473 40.940918,29.8515452 40.8095685,29.9300377" id="Path" fill="#3B3B3B"></path>
                <path d="M39.3787813,29.9300377 C39.2874545,29.9771742 24.7309706,31.1623223 22.2972794,29.6219665 C26.4814017,28.9081842 36.8419246,29.0075077 39.6984253,29.6219665 C39.4379746,29.8761673 39.3821638,29.9300377 39.3787813,29.9317211" id="Path" fill="#3C3C3C"></path>
                <path d="M37.3966506,29.9300377 C37.3137799,29.9620232 25.8674824,30.7852297 24.2878663,29.6202831 C26.4036048,29.4300534 32.0218968,28.9233352 37.8076214,29.6202831 C37.6854658,29.7417096 37.5471931,29.8459278 37.3966506,29.9300377" id="Path" fill="#3D3D3D"></path>
                <path d="M51.5269425,30.6219352 L50.4749926,30.6219352 C50.8994933,30.3273316 51.0939857,30.1943391 51.1514878,29.7802107 C51.1870037,29.492341 51.0347923,29.1994209 50.6965448,28.9098677 C51.2247882,29.3192825 51.5331975,29.9487961 51.5320196,30.6152014" id="Path" fill="#262626"></path>
                <path d="M34.2864642,29.9300377 C33.4408453,30.1084833 29.2482668,29.9906418 28.2504365,29.9451887 C28.0813127,29.9367715 28.0813127,29.9367715 27.6043836,29.6219665 C30.0718996,29.3963844 32.6172125,29.5091755 35.0779635,29.6219665 C34.8230111,29.7464242 34.5583039,29.8500178 34.2864642,29.9317211" id="Path" fill="#3F3F3F"></path>
                <path d="M51.5269492,30.6219352 L50.8656686,30.6219352 C51.1650177,30.3424826 51.5032652,30.0276777 51.1667089,29.4283699 C51.4026429,29.7820486 51.5279976,30.1973874 51.5269492,30.6219352" id="Path" fill="#252525"></path>
                <path d="M51.5269425,30.6219352 L51.1684001,30.6219352 C51.3984085,30.3407992 51.4846616,30.2364254 51.3781136,29.8323976 C51.4770818,30.0839419 51.5275714,30.3517892 51.5269425,30.6219352" id="Path" fill="#242424"></path>
                <path d="M51.5269425,30.6219352 L51.4339245,30.6219352 C51.4857998,30.5009926 51.50616,30.3689709 51.4931178,30.2381088 C51.5155782,30.3648292 51.526896,30.4932577 51.5269425,30.6219352" id="Path" fill="#232323"></path>
                <polyline id="Path" fill="#212121" points="0.0118386647 66.7470647 0.0118386647 30.6219352 2.42354379 30.6219352 2.42354379 66.755482 0.0118386647 66.755482"></polyline>
                <polyline id="Path" fill="#232323" points="2.42354379 66.7470647 2.42354379 30.6219352 3.57358551 30.6219352 3.57358551 66.755482 2.42354379 66.755482"></polyline>
                <polyline id="Path" fill="#242424" points="3.57358551 66.7470647 3.57358551 30.6219352 4.60016686 30.6219352 4.60016686 66.755482 3.57358551 66.755482"></polyline>
                <polyline id="Path" fill="#252525" points="4.60016686 66.7470647 4.60016686 30.6219352 5.57939356 30.6219352 5.57939356 66.755482 4.59678438 66.755482"></polyline>
                <polyline id="Path" fill="#262626" points="5.57939356 66.7470647 5.57939356 30.6219352 6.54847282 30.6219352 6.54847282 66.755482 5.57939356 66.755482"></polyline>
                <polyline id="Path" fill="#282828" points="6.5518553 66.7470647 6.5518553 30.6219352 7.52431704 30.6219352 7.52431704 66.755482 6.5518553 66.755482"></polyline>
                <polyline id="Path" fill="#292929" points="7.52431704 66.7470647 7.52431704 30.6219352 8.49508755 30.6219352 8.49508755 66.755482 7.52431704 66.755482"></polyline>
                <polyline id="Path" fill="#2A2A2A" points="8.49508755 66.7470647 8.49508755 30.6219352 9.46924053 30.6219352 9.46924053 66.755482 8.49677879 66.755482"></polyline>
                <polyline id="Path" fill="#2C2C2C" points="9.46924053 66.7470647 9.46924053 30.6219352 10.4636884 30.6219352 10.4636884 66.755482 9.46924053 66.755482"></polyline>
                <polyline id="Path" fill="#2D2D2D" points="10.4619971 66.7470647 10.4619971 30.6219352 11.4767398 30.6219352 11.4767398 66.755482 10.4619971 66.755482"></polyline>
                <polyline id="Path" fill="#2E2E2E" points="11.4733573 66.7470647 11.4733573 30.6219352 12.5134686 30.6219352 12.5134686 66.755482 11.4750486 66.755482"></polyline>
                <polyline id="Path" fill="#2F2F2F" points="12.5134686 66.7470647 12.5134686 30.6219352 13.5823309 30.6219352 13.5823309 66.755482 12.5134686 66.755482"></polyline>
                <polyline id="Path" fill="#313131" points="13.5806397 66.7470647 13.5806397 30.6219352 14.6951654 30.6219352 14.6951654 66.755482 13.5806397 66.755482"></polyline>
                <polyline id="Path" fill="#323232" points="14.6951654 66.7470647 14.6951654 30.6219352 15.8621195 30.6219352 15.8621195 66.755482 14.6951654 66.755482"></polyline>
                <polyline id="Path" fill="#333333" points="15.8621195 66.7470647 15.8621195 30.6219352 17.0798107 30.6219352 17.0798107 66.755482 15.858737 66.755482"></polyline>
                <polyline id="Path" fill="#343434" points="17.0798107 66.7470647 17.0798107 30.6219352 18.4125061 30.6219352 18.4125061 66.755482 17.0798107 66.755482"></polyline>
                <polyline id="Path" fill="#363636" points="18.4158886 66.7470647 18.4158886 30.6219352 19.8602057 30.6219352 19.8602057 66.755482 18.4158886 66.755482"></polyline>
                <polyline id="Path" fill="#373737" points="19.8602057 66.7470647 19.8602057 30.6219352 21.4634991 30.6219352 21.4634991 66.755482 19.8602057 66.755482"></polyline>
                <polyline id="Path" fill="#383838" points="21.4634991 66.7470647 21.4634991 30.6219352 23.3475381 30.6219352 23.3475381 66.755482 21.4634991 66.755482"></polyline>
                <polyline id="Path" fill="#3A3A3A" points="23.3475381 66.7470647 23.3475381 30.6219352 25.85057 30.6219352 25.85057 66.755482 23.3475381 66.755482"></polyline>
                <polyline id="Path" fill="#3B3B3B" points="25.85057 66.7470647 25.85057 30.6219352 36.6643446 30.6219352 36.6643446 66.755482 25.85057 66.755482"></polyline>
                <polyline id="Path" fill="#3A3A3A" points="36.6643446 66.7470647 36.6643446 30.6219352 38.8460414 30.6219352 38.8460414 66.755482 36.6643446 66.755482"></polyline>
                <polyline id="Path" fill="#383838" points="38.8460414 66.7470647 38.8460414 30.6219352 40.4493349 30.6219352 40.4493349 66.755482 38.8460414 66.755482"></polyline>
                <polyline id="Path" fill="#373737" points="40.4493349 66.7470647 40.4493349 30.6219352 41.7718828 30.6219352 41.7718828 66.755482 40.4510261 66.755482"></polyline>
                <polyline id="Path" fill="#363636" points="41.7718828 66.7470647 41.7718828 30.6219352 42.925307 30.6219352 42.925307 66.755482 41.7718828 66.755482"></polyline>
                <polyline id="Path" fill="#343434" points="42.9236158 66.7470647 42.9236158 30.6219352 43.9535796 30.6219352 43.9535796 66.755482 42.9236158 66.755482"></polyline>
                <polyline id="Path" fill="#333333" points="43.9535796 66.7470647 43.9535796 30.6219352 44.8786867 30.6219352 44.8786867 66.755482 43.9535796 66.755482"></polyline>
                <polyline id="Path" fill="#323232" points="44.8786867 66.7470647 44.8786867 30.6219352 45.7243056 30.6219352 45.7243056 66.755482 44.8786867 66.755482"></polyline>
                <polyline id="Path" fill="#313131" points="45.7158494 66.7470647 45.7158494 30.6219352 46.4904363 30.6219352 46.4904363 66.755482 45.7158494 66.755482"></polyline>
                <polyline id="Path" fill="#2F2F2F" points="46.4904363 66.7470647 46.4904363 30.6219352 47.2007562 30.6219352 47.2007562 66.755482 46.4904363 66.755482"></polyline>
                <polyline id="Path" fill="#2E2E2E" points="47.2007562 66.7470647 47.2007562 30.6219352 47.860339 30.6219352 47.860339 66.755482 47.2007562 66.755482"></polyline>
                <polyline id="Path" fill="#2D2D2D" points="47.860339 66.7470647 47.860339 30.6219352 48.4691846 30.6219352 48.4691846 66.755482 47.860339 66.755482"></polyline>
                <polyline id="Path" fill="#2C2C2C" points="48.4691846 66.7470647 48.4691846 30.6219352 49.0442054 30.6219352 49.0442054 66.755482 48.4776408 66.755482"></polyline>
                <polyline id="Path" fill="#2A2A2A" points="49.0442054 66.7470647 49.0442054 30.6219352 49.5515768 30.6219352 49.5515768 66.755482 49.0442054 66.755482"></polyline>
                <polyline id="Path" fill="#292929" points="49.5515768 66.7470647 49.5515768 30.6219352 50.0251234 30.6219352 50.0251234 66.755482 49.5515768 66.755482"></polyline>
                <polyline id="Path" fill="#282828" points="50.0285058 66.7470647 50.0285058 30.6219352 50.4648452 30.6219352 50.4648452 66.755482 50.0285058 66.755482"></polyline>
                <polyline id="Path" fill="#262626" points="50.4648452 66.7470647 50.4648452 30.6219352 50.8487562 30.6219352 50.8487562 66.755482 50.4648452 66.755482"></polyline>
                <polyline id="Path" fill="#252525" points="50.8487562 66.7470647 50.8487562 30.6219352 51.1717826 30.6219352 51.1717826 66.755482 50.8487562 66.755482"></polyline>
                <polyline id="Path" fill="#242424" points="51.1717826 66.7470647 51.1717826 30.6219352 51.4119384 30.6219352 51.4119384 66.755482 51.1667089 66.755482"></polyline>
                <polyline id="Path" fill="#232323" points="51.4119384 66.7470647 51.4119384 30.6219352 51.5218688 30.6219352 51.5218688 66.755482 51.4119384 66.755482"></polyline>
                <path d="M29.178926,46.0440104 C29.1786117,44.3323225 27.8977979,42.8887647 26.1914142,42.6768964 C24.4850305,42.4650281 22.8872106,43.5511685 22.4644824,45.2103304 C22.0417541,46.8694923 22.9264402,48.5823235 24.528022,49.2055274 L22.8367842,55.6295683 L28.6884671,55.6295683 L26.9972293,49.2055274 C28.3100373,48.7005848 29.1765354,47.4449344 29.178926,46.0440104 Z" id="Path" fill="#F9F9F9"></path>
            </g>
        </g>
    </g>
</svg>