<?xml version="1.0" encoding="UTF-8"?>
<svg width="700px" height="600px" viewBox="0 0 700 600" version="1.1" xmlns="http://www.w3.org/2000/svg" xmlns:xlink="http://www.w3.org/1999/xlink">
    <title>imge-7</title>
    <g id="imge-7" stroke="none" stroke-width="1" fill="none" fill-rule="evenodd">
        <g id="Group-13" transform="translate(77.000000, 14.000000)" fill-rule="nonzero">
            <g id="Asset-1" transform="translate(164.253083, 0.000000)">
                <g id="Group" style="mix-blend-mode: multiply;" transform="translate(1.288799, 4.631999)">
                    <rect id="Rectangle" fill="#9C9C9C" opacity="0.65" x="0" y="0" width="278.463779" height="561.655894" rx="32.002704"></rect>
                    <rect id="Rectangle" fill="#969696" opacity="0.69" x="2.24500509" y="1.8901881" width="273.994556" height="557.875517" rx="30.192408"></rect>
                    <rect id="Rectangle" fill="#919191" opacity="0.73" x="4.46922309" y="3.78037621" width="269.504546" height="554.07437" rx="28.40292"></rect>
                    <rect id="Rectangle" fill="#8B8B8B" opacity="0.77" x="6.71422818" y="5.67056431" width="265.035323" height="550.293994" rx="26.592624"></rect>
                    <rect id="Rectangle" fill="#858585" opacity="0.81" x="8.95923326" y="7.56075241" width="260.545313" height="546.513618" rx="24.782328"></rect>
                    <rect id="Rectangle" fill="#7F7F7F" opacity="0.85" x="11.2042384" y="9.47171182" width="256.055302" height="542.71247" rx="22.99284"></rect>
                    <rect id="Rectangle" fill="#797979" opacity="0.88" x="13.4492434" y="11.3618999" width="251.586079" height="538.932094" rx="21.182544"></rect>
                    <rect id="Rectangle" fill="#747474" opacity="0.92" x="15.6734614" y="13.252088" width="247.096069" height="535.151718" rx="19.393056"></rect>
                    <rect id="Rectangle" fill="#6E6E6E" opacity="0.96" x="17.9184665" y="15.1422761" width="242.626846" height="531.35057" rx="17.58276"></rect>
                    <rect id="Rectangle" fill="#686868" x="20.1634716" y="17.0324642" width="238.136836" height="527.570194" rx="15.772464"></rect>
                </g>
                <path d="M-108.794441,147.662196 L389.586855,147.662196 C409.916099,147.662196 426.396207,164.142304 426.396207,184.471548 L426.396207,387.528452 C426.396207,407.857696 409.916099,424.337804 389.586855,424.337804 L-108.794441,424.337804 C-129.123685,424.337804 -145.603793,407.857696 -145.603793,387.528452 L-145.603793,184.471548 C-145.603793,164.142304 -129.123685,147.662196 -108.794441,147.662196 Z" id="Rectangle" fill="#1C1C1C" transform="translate(140.396207, 286.000000) rotate(90.000000) translate(-140.396207, -286.000000) "></path>
                <path d="M-108.799299,156.195037 L389.612019,156.195037 C405.241059,156.195037 417.910899,168.864877 417.910899,184.493917 L417.910899,387.547625 C417.910899,403.176665 405.241059,415.846505 389.612019,415.846505 L-108.799299,415.846505 C-124.428339,415.846505 -137.098179,403.176665 -137.098179,387.547625 L-137.098179,184.493917 C-137.098179,168.864877 -124.428339,156.195037 -108.799299,156.195037 Z" id="Rectangle" fill="#2B2B2B" transform="translate(140.406360, 286.020771) rotate(90.000000) translate(-140.406360, -286.020771) "></path>
                <path d="M2.07870841,117.607127 L2.07870841,117.607127 C0.977663855,117.60907 0.0660609941,116.752815 0,115.654586 L0,72.1387174 C0.0660609941,71.0404893 0.977663855,70.1842334 2.07870841,70.186212 L2.07870841,70.186212 C3.17975297,70.1842334 4.09135583,71.0404893 4.15741683,72.1387174 L4.15741683,115.758443 C4.04035414,116.815567 3.14307312,117.61354 2.07870841,117.607127 L2.07870841,117.607127 Z" id="Path" fill="#333333"></path>
                <path d="M2.07870841,179.775586 L2.07870841,179.775586 C0.977663855,179.777565 0.0660609941,178.921309 0,177.823081 L0,134.452611 C0.0660609941,133.354383 0.977663855,132.498127 2.07870841,132.500106 L2.07870841,132.500106 C3.17975297,132.498127 4.09135583,133.354383 4.15741683,134.452611 L4.15741683,177.823081 C4.09135583,178.921309 3.17975297,179.777565 2.07870841,179.775586 Z" id="Path" fill="#333333"></path>
                <path d="M278.734011,193.692352 L278.734011,193.692352 C277.50561,193.692352 276.509793,192.697292 276.509793,191.469824 L276.509793,122.529886 C276.509793,121.302417 277.50561,120.307357 278.734011,120.307357 L278.734011,120.307357 C279.965821,120.307357 280.967611,121.299065 280.979016,122.529886 L280.979016,191.469824 C280.967611,192.700645 279.965821,193.692352 278.734011,193.692352 Z" id="Path" fill="#333333"></path>
                <path d="M38.8676019,556.842632 C27.3278683,556.751206 18.034361,547.353319 18.0802506,535.822079 L18.0802506,36.9578186 C18.0228163,25.4150544 27.3163793,15.9985382 38.8676019,15.8957225 L86.1997925,15.8957225 C89.8309526,15.9185969 92.7592512,18.872539 92.747724,22.5009953 L92.747724,26.9045105 C92.7244944,29.4123303 94.7283138,31.4702473 97.2377342,31.5157386 L184.66821,31.5157386 C187.17763,31.4702473 189.18145,29.4123303 189.15822,26.9045105 L189.15822,22.2517398 C189.124705,20.5775859 189.766898,18.9604013 190.94005,17.7646943 C192.113203,16.5689874 193.718584,15.8957225 195.394346,15.8957225 L242.975981,15.8957225 C254.522398,16.0098696 263.809361,25.419699 263.763238,36.9578186 L263.763238,535.822079 C263.797821,547.348663 254.51092,556.73987 242.975981,556.842632 L38.8676019,556.842632 Z" id="Path" fill="#EDEDED"></path>
                <g id="Group-15" transform="translate(38.883383, 156.511729)">
                    <path d="M105.236025,259.222552 C104.729999,259.222552 104.22826,259.129962 103.756025,258.948482 C75.8837985,248.192944 53.168135,231.855757 36.2519304,210.391473 C22.4698445,192.911218 12.4513797,171.954965 6.46440947,148.104275 C-4.08980209,106.071447 1.18060686,67.3876073 2.3458561,60.05459 C2.62353954,58.3289078 3.96887065,56.969918 5.69427348,56.6721772 C32.662427,51.926104 34.6647806,28.9778372 34.6312964,22.052581 C34.6327443,20.2051762 35.8724569,18.5871834 37.6582657,18.1019764 L104.177925,0.140428775 C104.877669,-0.0468095915 105.614472,-0.0468095915 106.314216,0.140428775 L172.820481,18.0819225 C174.60629,18.5671296 175.846003,20.1851223 175.847451,22.0325272 C175.847451,28.9577833 177.81632,51.9060501 204.784474,56.6521234 C206.510872,56.947961 207.857126,58.3078835 208.132891,60.0345361 C209.29814,67.3876073 214.568549,106.051393 204.014338,148.084222 C198.027367,171.934911 188.008903,192.87111 174.226817,210.371419 C157.310612,231.835703 134.594949,248.17289 106.722722,258.928428 C106.249741,259.117724 105.745584,259.217465 105.236025,259.222552 Z" id="Path" fill="#4AD37E"></path>
                    <path d="M104.323398,241.545178 C80.3867818,231.373517 61.0015412,216.497463 46.6771086,197.331912 C34.1692044,180.602207 25.3345754,160.332496 20.4145316,137.191968 C14.5292477,109.507651 15.7223918,83.9513533 16.9624573,71.1765503 L16.9624573,71.1765503 C17.0493633,70.263846 17.6545903,69.4825296 18.5175665,69.1689857 L18.5175665,69.1689857 C40.8655583,60.9714301 47.6356457,42.4951435 49.6867812,32.1963369 L49.6867812,32.1963369 C49.8624016,31.3088087 50.5277171,30.5979004 51.4027637,30.3627612 L104.631739,15.9885984 C105.041783,15.8747659 105.475165,15.8747659 105.88521,15.9885984 L159.094076,30.3560693 C159.969123,30.5912085 160.634438,31.3021169 160.810059,32.189645 L160.810059,32.189645 C162.861194,42.4951435 169.631281,60.9647382 191.959164,69.1689857 L191.959164,69.1689857 C192.82214,69.4825296 193.427367,70.263846 193.514273,71.1765503 L193.514273,71.1765503 C194.754339,83.9446615 195.954186,109.500959 190.062199,137.185276 C185.142155,160.325804 176.307526,180.562056 163.799622,197.32522 C149.495299,216.490771 130.110058,231.366825 106.153333,241.538486 L106.153333,241.538486 C105.555913,241.792512 104.880599,241.792512 104.28318,241.538486 L104.323398,241.545178 Z" id="Path" fill-opacity="0.196371012" fill="#000000"></path>
                    <path d="M106.032589,238.54836 C83.02089,228.662284 64.3752052,214.290426 50.6229278,195.826626 C38.4795333,179.525614 29.8943737,159.813539 25.1011042,137.244448 C19.4533243,110.656844 20.4680554,86.0451198 21.656359,73.2753265 C44.4344029,64.5974742 51.7444727,45.7598595 54.0877006,34.7256366 L106.032589,20.6741912 L157.984154,34.7256366 C160.327381,45.7598595 167.637451,64.5841237 190.422171,73.2753265 C191.603799,86.0451198 192.61853,110.656844 186.97075,137.244448 C182.17748,159.813539 173.619024,179.525614 161.448926,195.826626 C147.696649,214.290426 129.050964,228.662284 106.032589,238.54836 Z" id="Path" fill="#EDEDED"></path>
                    <polygon id="Path" fill="#4AD37E" points="161.048132 95.4500277 146.65582 81.1064425 95.5869745 132.002387 73.3901431 109.880706 58.9978307 124.224291 95.5869745 160.622563"></polygon>
                </g>
                <path d="M375.975991,521.068778 C375.788907,520.196383 375.581036,519.386303 375.393952,518.638536 C375.206869,517.890769 375.019785,517.226088 374.832701,516.561406 C374.458534,515.377442 374.12594,514.484276 373.897282,513.881909 L358.390118,513.881909 C360.65591,511.098555 363.586889,506.508098 362.298089,502.582323 C361.00929,498.656547 363.108786,496.350933 366.850461,491.65662 C367.889815,490.389571 369.033105,488.977123 370.238756,487.377733 C374.250663,482.06028 374.250663,480.689375 372.151167,478.404532 C371.426076,477.661735 370.816481,476.814551 370.342691,475.891205 C368.555002,472.29777 369.843801,470.137555 372.421399,465.837897 L373.481541,464.051565 C376.287797,459.191081 375.061359,456.864696 373.232096,453.333575 C372.816354,452.523495 372.338251,451.630329 371.860148,450.591764 C370.384265,447.351442 370.467414,446.936016 370.883155,444.671944 C371.286705,442.614314 371.557496,440.532894 371.693852,438.440555 C372.088806,432.645363 372.62927,424.710727 368.305557,420.161813 C365.519,417.526872 361.732382,416.217697 357.912015,416.568378 C345.772358,416.734549 344.649855,422.072772 343.361056,428.262619 C343.045192,429.909722 342.642752,431.539062 342.155405,433.143874 C340.886039,436.480706 341.851037,440.254641 344.566707,442.574043 C346.763979,444.479701 347.804596,447.394368 347.310602,450.259423 C346.541405,453.834475 347.018141,457.564849 348.661762,460.832014 C349.6847,462.938066 350.385412,465.185644 350.740471,467.499601 L350.865193,468.28891 C351.696677,473.606362 351.696677,473.606362 350.054497,477.054398 C349.555607,478.113734 348.911207,479.505411 348.100511,481.395599 C347.48749,482.74598 346.959848,484.133458 346.520693,485.549858 C346.25006,484.836366 345.930569,484.142347 345.564487,483.472729 C343.776798,480.440119 344.109391,477.241339 344.483558,473.689447 C344.8993,469.659816 345.335829,465.380928 342.695869,461.122812 C341.635728,459.378023 340.804244,458.04866 340.118271,456.968553 C338.078828,454.232989 336.795577,451.009389 336.397383,447.621469 C335.358028,442.615586 331.387695,442.117075 328.207271,441.72242 C326.51902,441.679641 324.868302,441.215506 323.405455,440.372286 C320.786282,438.399012 315.693447,438.627497 312.305152,440.850025 C309.333339,442.71737 307.993249,446.350777 309.04158,449.698598 C311.120288,458.651028 318.749148,472.547026 326.669027,474.271044 C327.643298,474.357147 328.555996,474.78373 329.246626,475.475779 C329.620793,476.078147 329.246626,477.220568 328.976394,478.653787 C328.039982,481.669029 327.903882,484.87569 328.581439,487.959329 C329.149282,489.815115 329.284385,491.776174 328.976394,493.692207 C328.664587,495.769337 328.747736,496.600189 333.13381,501.460673 C336.487758,505.276926 339.402345,509.457366 341.822812,513.923451 L325.608886,513.923451 C324.971154,515.486232 324.436476,517.089048 324.00828,518.721621 C323.80041,519.469388 323.613326,520.279468 323.426242,521.151863 C321.509776,530.588346 321.221536,540.282725 322.573972,549.816254 C323.833535,557.790142 326.928957,565.362836 331.616353,571.937686 L367.806667,571.937686 C372.503549,565.370204 375.593486,557.793514 376.828261,549.816254 C378.196455,540.255849 377.908159,530.531486 375.975991,521.068778 L375.975991,521.068778 Z" id="Path" fill="#000000" opacity="0.15"></path>
                <path d="M354.02483,515.772097 C354.02483,515.772097 355.916455,511.950178 354.02483,501.502215 C352.133205,491.054252 350.262368,490.618055 354.02483,481.831796 C357.787292,473.045537 358.01595,475.600407 356.747938,467.291888 C355.479926,458.983368 352.070844,459.357252 353.359643,450.342509 C354.648443,441.327765 345.439764,442.033989 348.162872,433.393129 C350.88598,424.75227 348.786485,417.7108 363.025637,417.503087 C377.26479,417.295374 376.350158,429.841238 375.76812,438.419784 C375.186082,446.99833 373.543902,445.544339 376.038352,450.986419 C378.532802,456.428499 380.840169,458.090203 377.701319,463.449197 C374.562469,468.808192 372.27589,471.612318 374.562469,476.223546 C376.849048,480.834774 380.237343,479.152299 374.562469,486.609195 C368.887595,494.06609 364.667817,497.285642 366.476293,502.727722 C368.28477,508.169802 360.531187,515.543612 360.531187,515.543612 L354.02483,515.772097 Z" id="Path" fill="#FFFFFF"></path>
                <path d="M360.531187,516.748348 L354.02483,516.748348 C353.686481,516.748005 353.372396,516.572758 353.194595,516.28511 C353.016795,515.997462 353.000595,515.638367 353.151772,515.335899 C353.151772,515.335899 354.835526,511.493209 353.151772,501.668386 C352.715244,499.217372 352.278715,497.327184 351.904547,495.769337 C350.678109,490.451885 350.200007,488.45784 353.214134,481.437141 C354.02483,479.546953 354.66923,478.155276 355.292842,477.09594 C356.914235,473.647905 356.914235,473.647905 356.103538,468.330452 L355.978816,467.541143 C355.623757,465.227187 354.923045,462.979609 353.900107,460.873557 C352.246679,457.609391 351.769504,453.875576 352.548947,450.300966 C353.037941,447.432148 351.989189,444.516785 349.784265,442.615586 C347.079531,440.289394 346.116452,436.522965 347.372963,433.185417 C347.867023,431.580911 348.2764,429.951581 348.599401,428.304162 C349.8882,422.072772 351.03149,416.776091 363.15036,416.609921 C366.970061,416.264704 370.754489,417.573122 373.543902,420.203355 C377.867615,424.75227 377.306364,432.666134 376.91141,438.482097 C376.778909,440.573702 376.515086,442.654928 376.1215,444.713487 C375.684972,446.977558 375.601823,447.392984 377.098493,450.633307 C377.576596,451.671872 378.033912,452.565037 378.449654,453.375118 C380.299704,456.906239 381.505355,459.232624 378.699099,464.093108 L377.659745,465.879439 C375.102933,470.179098 373.814134,472.339313 375.581036,475.932747 C376.062521,476.856634 376.67904,477.703704 377.4103,478.446075 C379.489008,480.730917 379.489008,482.101823 375.497888,487.419275 C374.292237,489.018665 373.12816,490.431113 372.088806,491.698163 C368.347131,496.309391 366.28921,498.843489 367.536435,502.623865 C369.511208,508.585228 361.674477,516.125209 361.300309,516.45755 C361.097688,516.660451 360.817475,516.766397 360.531187,516.748348 L360.531187,516.748348 Z M355.355203,514.795846 L360.115446,514.795846 C362.194154,512.718716 366.808887,507.068923 365.540875,503.267775 C363.961056,498.469606 366.538655,495.291597 370.446626,490.493427 C371.465194,489.247149 372.525335,487.855472 373.793347,486.339168 C377.368725,481.58254 377.015345,481.187886 375.872055,479.858523 C375.033197,478.986599 374.332244,477.992002 373.793347,476.908998 C371.548342,472.360084 373.27367,469.431331 375.872055,464.986274 L376.91141,463.220713 C379.177202,459.294938 378.366506,457.757862 376.62039,454.392912 C376.183862,453.541288 375.705759,452.627351 375.206869,451.547244 C373.543902,447.891495 373.606263,447.060643 374.084366,444.464231 C374.473815,442.503517 374.73077,440.518835 374.853488,438.52364 C375.248443,432.686905 375.747333,425.56235 372.026445,421.615804 C369.627503,419.377151 366.372152,418.292858 363.108786,418.645508 C352.52816,418.790907 351.738251,422.550512 350.428664,428.781901 C350.075284,430.402063 349.721904,432.084538 349.160652,433.870869 C347.934214,437.734331 349.347736,439.354492 351.239361,441.41085 C353.818547,443.741875 355.02613,447.22867 354.440572,450.654078 C353.729866,453.871191 354.163555,457.235233 355.66701,460.167332 C356.729312,462.433886 357.464193,464.839668 357.849653,467.312659 L357.974376,468.122739 C358.868221,473.89716 358.847434,474.084102 356.997383,478.009877 C356.498493,479.069213 355.854093,480.419348 355.043397,482.288765 C352.299502,488.707096 352.652882,490.264943 353.858533,495.395454 C354.211914,496.994843 354.66923,498.926574 355.105758,501.398359 C356.075214,505.803706 356.16,510.357514 355.355203,514.795846 L355.355203,514.795846 Z" id="Shape" fill="#000000"></path>
                <path d="M356.747938,516.748348 C356.566057,516.739038 356.388534,516.689369 356.228261,516.602949 C355.77721,516.310391 355.639313,515.713289 355.916455,515.252814 C355.916455,515.252814 359.866001,508.792941 358.327756,502.997749 C356.893448,497.680296 358.327756,493.983005 360.946929,487.273876 C361.612116,485.591401 362.360451,483.680442 363.15036,481.478684 C365.540875,474.956496 364.709391,471.986201 363.898695,469.140533 C363.208944,467.139878 362.940027,465.018461 363.108786,462.909144 C363.246067,461.099202 363.740607,459.334329 364.563882,457.716319 C365.416152,455.846902 366.102126,454.351369 364.563882,448.618491 C363.012582,442.392862 362.652888,435.930336 363.50374,429.571211 C363.644232,429.095605 364.119235,428.800803 364.608165,428.88577 C365.097095,428.970737 365.444603,429.408475 365.416152,429.903551 C364.646641,435.988174 364.998904,442.162177 366.455506,448.11998 C368.118473,454.538311 367.28699,456.428499 366.28921,458.505629 C365.57436,459.933744 365.137034,461.484368 365.00041,463.075314 C364.868829,464.95399 365.116238,466.839937 365.727958,468.621251 C366.580229,471.612318 367.557222,475.01881 364.958836,482.164137 C364.14814,484.365894 363.399805,486.318396 362.734618,487.9801 C360.198594,494.523059 358.909795,497.804924 360.15702,502.520009 C361.923922,509.125281 357.724931,516.000581 357.537847,516.31215 C357.361555,516.577641 357.0667,516.740463 356.747938,516.748348 L356.747938,516.748348 Z" id="Path" fill="#000000"></path>
                <path d="M354.398998,515.772097 C354.398998,515.772097 353.796172,490.846539 349.742691,484.012782 C345.689209,477.179025 351.655102,469.472874 346.89486,461.662866 C342.134618,453.852858 341.90596,454.766795 340.471651,447.870724 C339.037342,440.974653 331.678715,444.069577 327.874678,441.223909 C324.070642,438.378241 312.88719,440.746169 315.02826,449.532428 C317.16933,458.318687 324.527958,471.778488 331.907372,473.377878 C339.286787,474.977268 332.468624,479.0069 334.568119,487.917786 C336.667615,496.828673 331.907372,493.131382 338.725536,500.982933 C342.730735,505.453281 346.082948,510.467293 348.682549,515.875953 L354.398998,515.772097 Z" id="Path" fill="#FFFFFF"></path>
                <path d="M354.398998,516.748349 L348.765698,516.748349 C348.367913,516.748349 348.008522,516.510998 347.851066,516.14598 C345.288241,510.868188 341.999789,505.974213 338.081136,501.606072 C333.798997,496.745588 333.695062,495.914736 333.92372,493.837606 C334.220588,491.919812 334.078444,489.95972 333.507978,488.104728 C332.84081,485.020194 332.976797,481.816199 333.902933,478.799187 C334.2771,477.365967 334.568119,476.223546 334.173165,475.621178 C333.77821,475.01881 333.009088,474.707241 331.595566,474.416443 C323.675687,472.692425 316.150763,458.796427 313.968119,449.843997 C312.938994,446.491825 314.284694,442.866301 317.252478,440.995425 C320.640773,438.772896 325.712821,438.544411 328.352781,440.517685 C329.808096,441.360854 331.452106,441.825112 333.13381,441.867819 C336.335021,442.262474 340.284567,442.760985 341.323922,447.766868 C341.72824,451.156784 343.018729,454.380556 345.065597,457.113952 C345.730783,458.173288 346.562267,459.502651 347.622408,461.268211 C350.262368,465.609412 349.825839,469.805215 349.410097,473.834846 C349.056717,477.303653 348.703336,480.585518 350.491026,483.618128 C354.648443,490.638826 355.230481,514.775074 355.251268,515.855182 C355.266894,516.112328 355.16798,516.363228 354.981036,516.540635 C354.81702,516.67526 354.611253,516.748349 354.398998,516.748349 L354.398998,516.748349 Z M349.38931,514.795846 L353.38043,514.795846 C353.214134,510.101532 352.320289,490.327257 348.911207,484.490522 C346.832499,480.917859 347.206666,477.158254 347.580834,473.523277 C347.955001,469.8883 348.370743,465.962525 346.063377,462.161377 C345.003235,460.437359 344.192539,459.128768 343.506565,458.007117 C341.345478,455.063485 339.971777,451.617541 339.515445,447.995352 C338.808684,444.526545 336.584466,444.090348 333.009088,443.654151 C330.977318,443.581309 328.999746,442.979896 327.271853,441.909362 C324.442535,440.48452 321.063465,440.699027 318.437342,442.470187 C316.153095,443.88081 315.131096,446.669863 315.963679,449.220858 C318.042387,457.88249 325.234718,470.84378 332.115243,472.339313 C333.620783,472.479977 335.002988,473.230605 335.940067,474.416443 C336.575358,475.91683 336.575358,477.610368 335.940067,479.110756 C335.096812,481.801051 334.967874,484.664172 335.565899,487.419275 C336.184113,489.521568 336.333127,491.733807 336.002428,493.89992 C335.794557,495.229283 335.711409,495.66548 339.577807,500.131309 C343.484618,504.563109 346.78406,509.494542 349.38931,514.795846 L349.38931,514.795846 Z" id="Shape" fill="#000000"></path>
                <path d="M351.426444,516.748348 C350.988792,516.737317 350.609455,516.442501 350.491026,516.021352 L347.331389,504.472511 C345.242309,500.343594 343.838223,495.903037 343.173972,491.324279 C342.945314,487.440046 342.571147,487.17002 341.199199,485.778343 C340.845819,485.446002 340.430077,485.051347 339.972761,484.552836 C337.894053,482.475706 338.580026,479.900065 339.349149,476.701285 C339.757461,475.107016 340.07669,473.491282 340.305354,471.861573 C340.970541,466.710291 340.637948,466.502578 334.942287,463.303798 C328.706162,459.793449 324.320087,451.277217 324.133003,450.84102 C323.904346,450.358394 324.09681,449.781438 324.569532,449.532428 C324.800098,449.411109 325.070227,449.38907 325.317434,449.47141 C325.564642,449.55375 325.767512,449.733335 325.879118,449.968625 C325.879118,449.968625 330.182044,458.277144 335.732196,461.434382 C341.698089,464.799332 343.070037,465.588641 342.238553,472.048515 C342.012192,473.750229 341.678941,475.436032 341.240773,477.09594 C340.471651,480.273949 340.159845,481.852567 341.386283,483.161159 C341.822812,483.618128 342.217766,483.992011 342.55036,484.303581 C344.2549,485.923742 344.857726,486.713051 345.107171,491.137337 C345.77846,495.50474 347.117538,499.7431 349.077504,503.703973 L352.320289,515.439756 C352.390281,515.690441 352.357202,515.958674 352.228401,516.184881 C352.099599,516.411088 351.885737,516.576541 351.634315,516.644491 L351.426444,516.748348 Z" id="Path" fill="#000000"></path>
                <path d="M381.068826,521.068778 C380.881743,520.196383 380.694659,519.386303 380.486788,518.638536 C380.278917,517.890769 380.112621,517.226088 379.925537,516.561406 C379.572156,515.377442 379.239563,514.484276 379.010905,513.881909 L330.556212,513.881909 C329.965326,515.415892 329.465567,516.983389 329.059542,518.576222 C328.872458,519.323989 328.664587,520.134069 328.477504,521.006464 C326.571542,530.444156 326.283355,540.136743 327.625233,549.670855 C328.884796,557.644743 331.980219,565.217436 336.667615,571.792287 L372.878715,571.792287 C377.565433,565.219212 380.654352,557.645015 381.90031,549.670855 C383.261022,540.159409 382.979788,530.485258 381.068826,521.068778 Z" id="Path" fill="#000000"></path>
                <path d="M315.132196,433.5593 C315.822116,433.183625 316.088969,432.328504 315.735021,431.627569 L314.467009,429.218099 C314.247473,428.733551 313.777446,428.41034 313.246102,428.378547 C312.714757,428.346755 312.209491,428.611611 311.933658,429.066519 C311.657826,429.521427 311.656797,430.091562 311.930985,430.547462 L313.198997,432.956932 C313.574957,433.646329 314.430728,433.912979 315.132196,433.5593 Z" id="Path" fill="#000000"></path>
                <path d="M325.234718,433.102331 C325.579569,432.930268 325.836076,432.621186 325.941479,432.250708 L326.752176,429.675067 C326.888197,429.320693 326.888197,428.928562 326.752176,428.574188 C326.571677,428.240656 326.264555,427.993647 325.899905,427.888736 C325.149482,427.669879 324.360097,428.082616 324.112216,428.823444 L323.322307,431.419856 C323.091456,432.170842 323.50866,432.96756 324.257726,433.206188 C324.585807,433.28241 324.930028,433.245819 325.234718,433.102331 L325.234718,433.102331 Z" id="Path" fill="#000000"></path>
                <path d="M308.251671,441.577021 C308.612096,441.680925 308.998591,441.643791 309.332599,441.473164 C309.675838,441.29908 309.93167,440.990811 310.03936,440.621541 C310.26852,439.864455 309.840574,439.064991 309.083154,438.83521 L306.505556,438.0459 C305.785273,437.899893 305.071087,438.32155 304.851564,439.022421 C304.632041,439.723293 304.97822,440.476567 305.653285,440.76694 L308.251671,441.577021 Z" id="Path" fill="#000000"></path>
            </g>
            <g id="Asset-1" transform="translate(0.000000, 78.815554)">
                <path d="M120.893088,391.332961 C115.974451,364.880951 116.220383,362.502967 116.859806,357.330238 C117.46521,352.451946 117.67903,347.533267 117.499228,342.621057 C117.031958,318.841214 107.219278,218.696208 107.120905,217.593019 C107.085062,217.235138 106.845753,216.929792 106.506076,216.808529 C64.9681894,202.369017 18.9297508,217.004652 18.4870735,217.176259 C18.149123,217.262218 17.8966132,217.542972 17.8476507,217.887203 C17.8476507,218.352993 10.2975435,264.613367 13.59303,292.144051 C15.243617,306.718833 15.9255162,321.386469 15.6342642,336.050956 C15.6342642,345.097102 15.6342642,355.344498 16.1261279,368.362124 C17.3803802,402.119694 28.8653967,465.58981 28.9637694,466.227207 C29.0514285,466.713491 29.5046848,467.046978 29.9966831,466.987182 L54.9587639,464.069861 C55.4225512,464.019594 55.7730723,463.62783 55.770339,463.162795 C55.770339,462.500882 55.0571366,397.216634 53.7782911,368.558246 C52.6961911,344.263582 60.8365347,292.560811 63.3450393,277.38584 C67.3783214,293.418847 81.3718425,351.054321 82.7244676,382.801636 C84.2984313,419.966833 100.087255,466.692998 100.259407,467.158789 C100.376938,467.535104 100.724801,467.792698 101.120168,467.796187 L101.390693,467.796187 L128.443195,459.583561 C128.838461,459.46133 129.1012,459.088616 129.083544,458.676495 C128.022955,436.05801 125.285637,413.548702 120.893088,391.332961 Z" id="Path" fill="#000000"></path>
                <path d="M158.446878,472.184426 C156.331864,466.374299 149.519553,465.687871 142.92858,465.025958 C136.337607,464.364044 130.312277,463.751162 129.107211,458.455857 C129.055966,458.205759 128.901378,457.98876 128.681386,457.858116 C128.461393,457.727471 128.196361,457.695275 127.951331,457.769428 L100.89883,465.982054 C100.560879,466.068013 100.30837,466.348767 100.259407,466.692998 C99.2856881,472.21224 99.6825371,477.885202 101.415287,483.216311 C101.556443,483.582224 101.907382,483.82516 102.300641,483.829194 L153.528242,483.829194 C155.431307,483.859131 157.243445,483.019156 158.446878,481.549271 C159.971656,479.514501 159.971656,476.327512 158.446878,472.184426 Z" id="Path" fill="#000000"></path>
                <path d="M55.5981867,462.623458 C55.4051037,462.34727 55.0712197,462.20463 54.7374253,462.255729 L29.7753445,465.246595 C29.4300033,465.3013 29.1397505,465.534634 29.0129558,465.859478 C24.9796738,477.38167 28.3981262,483.191796 28.5456853,483.412434 C28.7048915,483.697479 29.0053966,483.875339 29.3326672,483.878225 L29.3326672,483.878225 L59.0658255,483.878225 C59.3983299,483.870441 59.7000846,483.682442 59.8528073,483.387918 C64.5746985,474.684986 55.9670844,463.113764 55.5981867,462.623458 Z" id="Path" fill="#000000"></path>
                <path d="M29.8737172,466.766544 C29.5650103,466.758352 29.3062885,466.531398 29.2588876,466.227207 C29.2300364,465.897036 29.4697166,465.603815 29.7999377,465.565294 L54.7374253,462.549912 C54.9570827,462.523637 55.1741169,462.616172 55.3067731,462.792661 C55.4394293,462.96915 55.4675539,463.202779 55.3805526,463.405543 C55.2935514,463.608308 55.1046418,463.749402 54.8849844,463.775677 L29.9474968,466.766544 L29.8737172,466.766544 Z" id="Path" fill="#FFFFFF"></path>
                <path d="M44.9001521,31.2031814 C44.9001521,31.2031814 44.0639838,29.9283857 46.2281839,18.5287705 C48.0972658,8.72264984 51.1468205,13.6257101 56.5573208,3.28025289 C61.1316529,-5.69234748 72.296958,6.95754812 85.4543109,3.57443651 C95.0948386,1.12290636 100.554525,28.4574676 91.2828953,36.6455783 C84.2492449,42.8724649 60.1971119,42.7744037 44.9001521,31.2031814 Z" id="Path" fill="#000000"></path>
                <path d="M64.5746985,72.4624339 C78.3960674,71.6043983 91.381268,74.913964 106.38311,83.8375338 C121.384951,92.7611036 123.131067,92.5159505 128.025111,114.285538 C132.919154,136.055126 139.53472,176.456343 130.484429,184.938637 C122.76217,192.293228 105.891246,190.920371 105.891246,190.920371 L106.456889,217.764626 C103.727046,220.044549 38.2353994,219.088452 19.0281235,218.132356 C19.170889,205.081133 19.9917616,192.046043 21.4874418,179.07948 C14.0646484,167.021583 8.58743117,153.876528 5.25594099,140.124666 C0.657015762,119.090537 -4.35999358,100.213755 15.5850779,88.9367165 C35.5301493,77.6596778 42.4408337,73.8107755 64.5746985,72.4624339 Z" id="Path" fill="#FFFFFF"></path>
                <path d="M73.9938876,220.09358 C52.3764797,220.09358 26.6766034,219.456182 18.7084121,219.063937 C18.225167,219.037861 17.8469432,218.63929 17.8476507,218.156871 C18.0062583,205.171442 18.8270906,192.20245 20.306969,179.300118 C12.9382308,167.211762 7.48020753,154.064688 4.12465457,140.320789 L3.63279091,137.869258 C-0.744795671,117.987349 -4.87645042,99.2086279 14.8964687,88.0296504 C34.6693879,76.8506728 41.7768178,72.8056481 64.4517326,71.4082759 L64.4517326,72.3398574 L64.4517326,71.4082759 C79.0600833,70.525725 92.0698771,74.0804438 106.678228,82.9304676 L109.678596,84.7445999 C121.975188,92.0991904 124.090201,93.3739861 128.738313,113.942324 C131.025479,124.091659 141.871073,175.230578 130.976293,185.477974 C124.065608,191.999044 110.440985,191.925498 106.579855,191.753891 L107.145498,217.617534 C107.153292,217.903051 107.025722,218.17555 106.801194,218.352993 C105.325603,219.701335 90.9139975,220.09358 73.9938876,220.09358 Z M19.6921394,217.249805 C42.1949019,218.328478 99.177307,218.867815 105.251823,217.249805 L104.68618,190.993917 C104.687132,190.734687 104.79364,190.486955 104.981298,190.307488 C105.173912,190.129499 105.43277,190.040521 105.694501,190.062335 C105.84206,190.062335 122.344085,191.263585 129.672854,184.35027 C138.132909,176.382797 131.910834,136.717039 126.918417,114.555207 C122.442458,94.746843 120.622563,93.6436544 108.694869,86.5097017 L105.694501,84.6955693 C91.4304544,76.0416679 78.6419992,72.5850104 64.5501053,73.4430459 C42.2686815,74.8159028 35.0382857,78.9099582 15.7818233,89.8192674 C-2.81062305,100.336332 1.02591351,117.644135 5.40350009,137.673136 L5.91995693,140.124666 C9.23807477,153.757144 14.6643193,166.791823 22.0038986,178.760781 C22.123295,178.932459 22.1757612,179.14166 22.1514577,179.349149 C19.8642917,202.712231 19.6921394,214.209907 19.6921394,217.249805 Z" id="Shape" fill="#000000"></path>
                <path d="M34.3496765,130.318584 C33.8914761,130.322733 33.5016311,129.986637 33.4397288,129.534056 C31.5460537,115.780972 28.1276012,110.608243 28.103008,110.559212 C27.8820728,110.142528 28.008137,109.626999 28.396647,109.358402 C28.7851571,109.089805 29.3137056,109.152765 29.6277854,109.505055 C29.7753445,109.725692 33.2921697,115.020997 35.2596243,129.264388 C35.332926,129.771763 34.9812418,130.242842 34.4726424,130.318584 L34.3496765,130.318584 Z" id="Path" fill="#000000"></path>
                <path d="M55.5735935,170.915885 C56.172151,171.192852 56.7883059,171.430344 57.4180822,171.626829 L57.4180822,169.69012 C56.7947858,169.468848 56.1868308,169.206781 55.5981867,168.90563 C51.9164531,166.884539 48.7258968,164.080719 46.2527771,160.693004 C46.0701744,160.426423 45.7649584,160.269689 45.4412021,160.276046 C45.1176289,160.292726 44.827254,160.479472 44.6788134,160.76655 L36.0711993,176.726011 C35.913561,177.00795 35.913561,177.351139 36.0711993,177.633078 C39.6372109,183.688357 49.4498909,185.55152 55.0325435,186.115372 L56.8770322,186.262464 L56.8770322,184.423816 L55.0325435,184.252209 C49.8925682,183.712872 41.2111746,182.070347 37.8173153,177.118256 L45.4903884,162.899381 C48.1965763,166.300729 51.6450081,169.042354 55.5735935,170.915885 Z" id="Path" fill="#000000"></path>
                <path d="M43.8426452,75.477816 C43.8426452,75.477816 48.8842477,66.7503686 50.0893137,47.3342498 C50.0893137,47.3342498 42.1949019,42.4311895 44.629627,34.3166247 C47.0643522,26.2020598 52.6961911,33.0908596 52.6961911,33.0908596 C56.4599834,31.7508997 59.2543381,28.5568534 60.074146,24.6575958 C61.549737,17.9649185 66.3208145,12.9883123 76.9450696,13.9689244 C87.5693246,14.9495364 91.8977248,24.2408357 91.2337089,38.0184352 C90.569693,51.7960347 88.0857815,60.0822066 82.4785357,64.5930221 C82.4785357,64.5930221 82.8228403,72.143735 85.6264632,74.6197804 C85.6264632,74.6197804 80.4618947,84.7445999 64.5009189,83.7394726 C46.1544044,82.6117687 43.8426452,75.477816 43.8426452,75.477816 Z" id="Path" fill="#FFFFFF"></path>
                <path d="M66.665119,84.7200846 L64.4025462,84.7200846 C45.6871339,83.5678655 43.0802565,76.1397291 42.9572906,75.8210302 C42.8465484,75.5883044 42.8465484,75.3182969 42.9572906,75.0855711 C42.9572906,75.0855711 47.8759272,66.4316697 49.0318068,47.8735864 C47.2856908,46.5987907 41.4079201,41.6957304 43.6458997,34.1450175 C44.4574748,31.4238191 45.7363203,29.8793551 47.4332499,29.5361409 C49.5311847,29.4543271 51.5451464,30.3627361 52.8683434,31.987671 C56.0374171,30.630071 58.3356023,27.8076732 59.0166391,24.4369581 C60.3200778,18.6023164 64.4517326,11.8851237 76.8958832,13.0128276 C87.3725792,13.9934397 92.7338931,22.8189482 91.9960976,38.0429505 C91.3074885,52.2863407 88.6760179,60.3763902 83.2901108,65.0097822 C83.4376699,67.2897052 84.1754654,72.3643727 86.0937336,73.933352 C86.3986306,74.2162766 86.4788707,74.6661979 86.2904791,75.0365405 C86.1921064,75.4533007 81.2734698,84.7200846 66.665119,84.7200846 Z M44.9001521,75.5023313 C45.6625407,76.8261575 49.4990773,81.8763097 64.5746985,82.8569217 C77.6090855,83.6659267 83.1425517,76.8016422 84.4705836,74.7668722 C82.0112653,71.7024595 81.568588,64.9607516 81.568588,64.666568 C81.552818,64.3725535 81.6811904,64.0892005 81.9128925,63.9065936 C87.1020542,59.7389924 89.6105588,51.9921571 90.2991679,37.9939199 C90.7910316,28.1877993 88.8481701,15.9301485 76.87129,14.9005058 C67.9685577,14.0669856 62.6072438,17.352036 60.9595006,24.8782336 C60.1020182,29.0977863 57.0866731,32.5595701 53.0159025,33.9979257 C52.6584817,34.104362 52.2717974,33.9887241 52.0321751,33.7037421 C51.4173456,32.9192525 49.5728568,31.0070589 47.9251136,31.252212 C46.2773703,31.497365 45.9822521,33.1889208 45.4657953,34.5617777 C43.277002,41.9163681 50.2122796,46.3536377 50.3844319,46.5252448 C50.6766831,46.6987641 50.8474408,47.0202849 50.8271092,47.3587651 C49.9417546,64.6420527 45.9084726,73.4920765 44.9001521,75.5023313 Z" id="Shape" fill="#000000"></path>
                <path d="M69.4933351,69.6432345 C67.8220754,69.6478294 66.1610685,69.3829099 64.5746985,68.8586845 C59.8282142,67.2406746 56.311389,63.1711346 54.1471889,56.7726409 C53.98497,56.2852763 54.2489637,55.758961 54.7374253,55.5959064 C54.9689343,55.5189532 55.2217495,55.5379231 55.4390935,55.6485558 C55.6564375,55.7591885 55.8200926,55.9522108 55.8933049,56.1842736 C57.8607595,61.9944001 60.9840938,65.6962106 65.1895281,67.1180981 C72.9609739,69.790266 82.0112653,63.8820783 82.109638,63.8330477 C82.3109189,63.6935703 82.56014,63.6409467 82.8008653,63.6870935 C83.0415907,63.7332402 83.2534556,63.8742534 83.3884835,64.0782007 C83.6610154,64.5057736 83.5408425,65.0720649 83.1179585,65.3529964 C79.0345419,67.953858 74.3345852,69.4337998 69.4933351,69.6432345 L69.4933351,69.6432345 Z" id="Path" fill="#000000"></path>
                <path d="M107.440617,162.80132 C107.268464,163.070988 103.013844,169.346906 85.5526836,170.033334 C76.1884236,170.453676 66.8054739,170.133977 57.4918618,169.077237 L57.4918618,169.69012 L57.4918618,171.626829 L57.0737777,184.423816 L57.0737777,186.262464 L57.0737777,187.880474 C68.9768783,190.846825 105.399382,189.98879 105.76828,189.98879 C106.017869,189.966917 106.264631,190.054535 106.444143,190.228771 C106.623656,190.403006 106.718101,190.646563 106.702821,190.895856 C106.703511,191.391799 106.314296,191.801335 105.817466,191.827437 C105.251823,191.827437 100.185628,191.950014 93.5208749,191.950014 C81.2242834,191.950014 63.3204462,191.582284 55.9916776,189.498483 C55.5810394,189.39358 55.3026161,189.013245 55.3276617,188.591417 L55.3276617,186.139887 L55.3276617,184.276724 L55.7457458,170.9404 L55.7457458,168.930145 L55.7457458,168.023079 C55.7674861,167.75859 55.890831,167.512682 56.0900503,167.336651 C56.2936097,167.163487 56.5648185,167.091394 56.8278458,167.140528 C66.3534924,168.327337 75.9644608,168.688247 85.5526836,168.219202 C99.9396957,167.65535 104.784553,163.16905 105.76828,162.065861 C105.276416,158.535658 101.734998,132.451377 103.727046,112.054646 C103.834281,111.59667 104.267129,111.290187 104.736247,111.340067 C105.205365,111.389948 105.563621,111.780549 105.571535,112.250768 C103.431928,133.824234 107.612769,161.918769 107.637362,162.188438 C107.656724,162.410748 107.585854,162.631515 107.440617,162.80132 L107.440617,162.80132 Z" id="Path" fill="#000000"></path>
                <path d="M73.5758035,59.0525639 C72.2262866,59.0263968 70.8863559,58.8202723 69.5917078,58.4396814 C69.2754011,58.3520966 69.029996,58.1029518 68.9479342,57.7860972 C68.8658724,57.4692427 68.9596211,57.1328162 69.193866,56.9035464 C69.4281109,56.6742765 69.7672648,56.5869949 70.0835715,56.6745797 C72.3516953,57.5221097 74.8703084,57.3979086 77.0434423,56.3313654 C78.3660239,55.4989204 79.3303909,54.2055175 79.7486924,52.7031008 C79.7960182,52.4649195 79.9371646,52.2555956 80.1405434,52.1219749 C80.3439223,51.9883542 80.5925529,51.9415933 80.8307925,51.9921571 C81.3206395,52.1023142 81.635593,52.5786615 81.5439948,53.0708303 C81.0514115,55.0968148 79.7910362,56.8539952 78.0271696,57.9738907 C76.6701969,58.7323125 75.1306124,59.1053909 73.5758035,59.0525639 L73.5758035,59.0525639 Z" id="Path" fill="#000000"></path>
                <path d="M67.2553554,35.4688438 C67.4275077,36.8417007 66.7634918,38.0674658 65.7551713,38.1900423 C64.7468508,38.3126188 63.8123098,37.3074914 63.6155643,35.9346346 C63.4188189,34.5617777 64.107428,33.3360126 65.1157485,33.2134361 C66.124069,33.0908596 67.0340168,34.0959869 67.2553554,35.4688438 Z" id="Path" fill="#000000"></path>
                <path d="M80.6586402,29.5116256 C80.3005476,29.5315596 79.9641107,29.3399574 79.7994829,29.022332 C79.6348551,28.7047066 79.6727487,28.3203128 79.8962515,28.0407075 C80.6347653,27.1306848 81.6869312,26.5276053 82.8474335,26.3491517 C84.404075,26.2334985 85.940677,26.7558824 87.1020542,27.7955544 C87.2912831,27.9450451 87.4131523,28.1633755 87.4408281,28.4024728 C87.4685039,28.6415702 87.399717,28.8818296 87.2496133,29.0703501 C86.9357784,29.4740438 86.3543889,29.5505879 85.9461745,29.2419572 C85.1848518,28.5085305 84.1503129,28.126252 83.0933653,28.1877993 C82.4257996,28.2782152 81.8184474,28.6204142 81.3964357,29.143896 C81.2235635,29.3769318 80.9493844,29.5135872 80.6586402,29.5116256 L80.6586402,29.5116256 Z" id="Path" fill="#000000"></path>
                <path d="M60.6643824,32.1592781 C60.4700238,32.1628362 60.2798926,32.1025315 60.1233324,31.987671 C59.9226688,31.8492223 59.7862038,31.6362286 59.7445847,31.3965244 C59.7029656,31.1568202 59.759681,30.9104974 59.9019937,30.7128753 C60.6984318,29.3784133 62.0179617,28.4363374 63.5417848,28.1142534 C64.7051742,27.9371339 65.892535,28.2089236 66.8618645,28.8742277 C67.1788816,29.2034723 67.2099553,29.7131713 66.9352682,30.0782609 C66.6605811,30.4433506 66.161015,30.55633 65.7551713,30.3451458 C65.1850376,29.9632179 64.4895767,29.8140357 63.8123098,29.9283857 C62.7763466,30.1834994 61.8887484,30.8470899 61.3529915,31.7670333 C61.1932541,31.9932031 60.9409528,32.1369187 60.6643824,32.1592781 L60.6643824,32.1592781 Z" id="Path" fill="#000000"></path>
                <path d="M85.1100063,34.0469563 C85.3067518,35.4198132 84.6427358,36.6455783 83.6344153,36.7681548 C82.6260948,36.8907313 81.6669607,35.885604 81.4948084,34.5127471 C81.3226561,33.1398902 81.9866721,31.9141251 82.9703994,31.7915486 C83.9541267,31.6689721 84.937854,32.6005535 85.1100063,34.0469563 Z" id="Path" fill="#000000"></path>
                <path d="M75.666224,49.5161714 C74.7591708,49.4783294 73.8741032,49.2262538 73.0839398,48.7806526 C72.7983851,48.6186208 72.6212393,48.3170381 72.6192141,47.9895078 C72.6172234,47.6619774 72.7906585,47.358259 73.0742052,47.1927605 C73.357752,47.0272619 73.7083329,47.0251262 73.9938876,47.187158 C74.4611581,47.4568263 75.6170377,47.8981017 76.1826809,47.5794028 C76.7483241,47.2607039 76.7237309,46.6478213 76.7483241,46.0839694 C76.9450696,42.3331283 73.379058,36.2778488 73.3544648,36.2778488 C73.1875251,35.9975776 73.1832644,35.6498172 73.3432876,35.3655654 C73.5033108,35.0813137 73.8033066,34.9037552 74.1302695,34.8997064 C74.4572324,34.8957941 74.7614889,35.0659961 74.9284285,35.3462673 C75.0759876,35.5914203 78.8141515,41.8673375 78.5928128,46.1820306 C78.6600817,47.3862315 78.0791539,48.5350677 77.0680355,49.1974127 C76.6316856,49.4100219 76.1519015,49.5190998 75.666224,49.5161714 L75.666224,49.5161714 Z" id="Path" fill="#000000"></path>
                <path d="M55.6965594,189.498483 C55.2967471,189.378016 55.0256696,189.007716 55.0325435,188.591417 L55.0325435,186.139887 C49.5813864,185.755686 44.3020707,184.074345 39.6372109,181.236827 C37.892431,183.185248 35.4612998,184.388183 32.8494924,184.595423 C32.36214,184.594284 31.8760999,184.545013 31.3984946,184.448331 C27.9674357,183.7576 24.7636376,182.223973 22.0776782,179.986546 L21.7579668,183.51675 C24.3174542,185.615765 27.3742131,187.025355 30.6361059,187.610805 C31.1053053,187.70815 31.5832569,187.757436 32.0625105,187.757897 C34.7442482,187.677535 37.294541,186.581752 39.1945336,184.693484 C43.1851627,187.256026 47.8035208,188.680385 52.548632,188.812055 L52.3764797,191.263585 C52.3764797,192.219682 53.2864275,192.44032 53.7045116,192.562896 C66.5610643,195.471753 79.6588731,197.195091 92.8322658,197.711109 C99.5462048,197.882717 103.751639,197.711109 104.858332,197.711109 L104.858332,191.851952 C103.087623,191.851952 98.7838161,191.851952 93.2995363,191.851952 C80.9537584,191.950014 63.025328,191.582284 55.6965594,189.498483 Z" id="Path" fill="#C4C4C4"></path>
                <path d="M105.719094,162.01683 C105.202637,158.486627 101.661219,132.402346 103.67786,112.030131 C103.67786,112.030131 99.8167298,116.933191 99.4970184,137.207345 C99.2019002,156.819587 99.7921366,165.645095 99.7921366,165.645095 C102.020319,164.90379 104.048047,163.66249 105.719094,162.01683 L105.719094,162.01683 Z" id="Path" fill="#C4C4C4"></path>
                <path d="M38.6534836,125.758699 C37.7813158,127.144869 36.828761,128.479134 35.8006743,129.754694 L35.1858448,129.632117 C35.2235397,129.495738 35.2235397,129.351736 35.1858448,129.215357 L34.9645061,127.768954 C32.9970515,114.604237 29.7015649,109.676662 29.5540058,109.456024 C33.3516544,113.495033 36.2143438,118.315231 37.9402813,123.576838 C38.2221263,124.289055 38.4602992,125.017684 38.6534836,125.758699 L38.6534836,125.758699 Z" id="Path" fill="#C4C4C4"></path>
                <path d="M64.4025462,68.8586845 C59.6560619,67.2406746 56.1392367,63.1711346 53.9750366,56.7726409 C53.9394147,56.6443035 53.9394147,56.5087334 53.9750366,56.3803961 L53.9750366,56.3803961 C53.9750366,56.3803961 53.7045116,71.9721278 67.59966,73.0017705 C72.6929361,73.5467521 77.8331045,72.5561333 82.3555698,70.1579955 C82.0343754,68.8338761 81.7961806,67.4911097 81.6423675,66.1374861 C77.8923166,68.2897829 73.6703775,69.4934337 69.345776,69.6431742 C67.6662693,69.6504815 65.9967438,69.3855281 64.4025462,68.8586845 L64.4025462,68.8586845 Z" id="Path" fill="#C4C4C4"></path>
                <path d="M53.1880547,98.7918677 C53.1880547,98.7918677 54.294748,84.2788092 56.4835413,79.6209019 C58.6723346,74.9629946 59.9511801,72.143735 59.5822823,68.3438632 C59.2133846,64.5439915 64.5009189,64.3968997 64.8698167,68.3438632 C65.1908991,70.2755756 65.1908991,72.2467926 64.8698167,74.178505 C64.8698167,74.178505 77.3631537,62.5827673 79.1830492,64.3723844 C81.0029448,66.1620014 70.0343851,76.0906985 70.0343851,76.0906985 C70.9623217,76.0039521 71.8755881,76.3667545 72.4893197,77.0659409 C73.1030514,77.7651273 73.3425554,78.7156047 73.1331262,79.6209019 C73.1331262,79.6209019 76.8466968,79.9396008 76.0351218,83.12659 C77.0168932,83.3100126 77.8636477,83.9243058 78.3406194,84.7991546 C78.8175912,85.6740034 78.8740859,86.7164254 78.4944401,87.6374055 C77.1910014,91.2166396 69.616301,100.606 66.9602372,103.817505 C65.3305498,105.831224 64.1787406,108.186212 63.5909712,110.706304 L51.2943796,104.67554 C52.1664915,102.799626 52.802543,100.823406 53.1880547,98.7918677 Z" id="Path" fill="#FFFFFF"></path>
                <path d="M63.4925984,111.539825 C63.3556286,111.576221 63.2114842,111.576221 63.0745143,111.539825 L50.7779228,105.533576 C50.5473726,105.415615 50.3712346,105.213697 50.2860591,104.969724 C50.1890117,104.742615 50.1890117,104.485888 50.2860591,104.25878 C51.1324653,102.503014 51.7601574,100.6506 52.1551411,98.7428371 C52.1551411,97.4925568 53.360207,84.0336562 55.5244071,79.3267183 C57.6886072,74.6197804 58.8936732,72.143735 58.5493686,68.5399856 C58.3132777,67.5888961 58.5153889,66.5823994 59.100544,65.7951787 C59.6856992,65.0079581 60.5928149,64.52219 61.5743302,64.4704456 C62.6306007,64.3966853 63.6721173,64.7503903 64.4635185,65.4516303 C65.2549197,66.1528703 65.7294101,67.1424596 65.7797645,68.1967714 C65.9299838,69.4083663 65.9957233,70.6288882 65.9765099,71.8495513 C73.6003967,64.9607516 78.2731014,62.0434307 79.7732856,63.5388641 C80.0981674,63.8533509 80.2764795,64.2888322 80.2651493,64.7401139 C80.2651493,67.191644 74.9284285,72.5604951 71.9280602,75.3797548 C72.3145446,75.5599501 72.6646311,75.80922 72.9609739,76.1152138 C73.641711,76.8096553 74.0214949,77.7429019 74.0184808,78.7138358 C74.9920119,78.9165362 75.8627653,79.4546936 76.4777991,80.2337845 C76.9178098,80.8637293 77.1262875,81.6257266 77.0680355,82.391131 C77.9679964,82.7719847 78.7190645,83.4346181 79.2076424,84.2788092 C79.7280392,85.3898011 79.7280392,86.6735054 79.2076424,87.7844973 C77.7566446,91.8295221 69.2228101,102.199495 67.5258805,104.25878 C65.9791566,106.141668 64.8930273,108.357405 64.3533598,110.73082 C64.2855258,111.002256 64.107285,111.233236 63.8614962,111.368217 C63.7540639,111.454 63.6275604,111.512848 63.4925984,111.539825 Z M52.4502592,104.185234 L62.8777689,109.308932 C63.5551248,107.064833 64.6662836,104.974475 66.1486622,103.155591 C69.8376397,98.6938065 76.4040195,90.358604 77.5353059,87.2451607 C77.8235855,86.6058852 77.8235855,85.8741815 77.5353059,85.234906 C77.1267081,84.6032983 76.4945443,84.1481813 75.7645968,83.9601103 C75.530967,83.8954281 75.3295322,83.747013 75.1989536,83.5433502 C75.1019061,83.3162417 75.1019061,83.0595149 75.1989536,82.8324064 C75.3670784,82.3494626 75.3036238,81.8163243 75.0268013,81.3860036 C74.5292636,80.8439056 73.8434348,80.510842 73.108533,80.4544222 C72.862187,80.4359748 72.6339528,80.3184764 72.4762582,80.1289175 C72.3185637,79.9393586 72.2449636,79.6940331 72.2723648,79.4492948 C72.3996605,78.7439504 72.2109571,78.0183996 71.7559079,77.4635554 C71.3035524,77.1014508 70.7373407,76.9104168 70.157351,76.9242188 C69.7548149,76.9817838 69.362829,76.7661177 69.1971399,76.3959216 C69.0314507,76.0257254 69.1322869,75.5908811 69.4441487,75.3307242 C74.1660399,71.0405464 78.1255423,66.5297309 78.4944401,65.0588128 C76.7237309,65.402027 70.550842,70.2315414 65.5338326,74.8649334 C65.2361191,75.1452246 64.7872547,75.1927463 64.4371218,74.9810432 C64.0869889,74.76934 63.9218544,74.3505722 64.0336485,73.9578673 C64.3293598,72.1392589 64.3293598,70.2850481 64.0336485,68.4664397 C63.8614962,66.946491 62.8039893,66.2355473 61.8694484,66.3336085 C60.9349074,66.4316697 60.4676369,66.946491 60.5906028,68.2212867 C60.9840938,72.3398574 59.5576891,75.3797548 57.4180822,79.9886314 C55.2784753,84.5975081 54.2209684,98.6938065 54.2209684,98.8408983 C54.2209684,98.9879902 54.2209684,98.8408983 54.2209684,98.8408983 C53.7755795,100.666829 53.1834299,102.454049 52.4502592,104.185234 L52.4502592,104.185234 Z" id="Shape" fill="#000000"></path>
                <path d="M17.8476507,173.171293 C20.6391035,178.523304 25.7119422,182.327152 31.6444264,183.51675 C41.8751905,185.576035 50.802516,161.036218 52.8437502,151.892011 C54.8849844,142.747803 68.2882691,108.426381 68.2882691,108.426381 L51.073041,97.8112557 C51.073041,97.8112557 41.9981565,122.841379 32.5543742,132.132678 C26.4586839,138.338591 21.4686061,145.534709 17.7984643,153.41196 C15.2041694,159.74792 15.2218441,166.848244 17.8476507,173.171293 L17.8476507,173.171293 Z" id="Path" fill="#FFFFFF"></path>
                <path d="M68.7063532,107.641892 L51.4911251,97.026766 C51.2525599,96.8939194 50.9684762,96.8688174 50.7101886,96.9577615 C50.4519009,97.0467056 50.243936,97.2412497 50.1385,97.4925568 C46.9071657,106.187095 42.9758412,114.606937 38.3829585,122.669771 C37.2762653,124.483904 36.1449789,126.199975 34.9890993,127.744439 C34.0399049,129.04433 32.98719,130.265875 31.8411719,131.397219 C25.6768717,137.680392 20.6363414,144.968503 16.9377029,152.946169 C14.181892,159.527108 14.181892,166.933567 16.9377029,173.514507 L16.9377029,173.514507 C19.8285779,179.150968 25.1461881,183.16041 31.3739014,184.399301 C31.8515067,184.495982 32.3375468,184.545254 32.8248992,184.546393 C43.9410179,184.546393 52.1797342,158.780811 53.6799184,152.063618 C55.6965594,143.091018 68.9276919,109.063779 69.0506578,108.720565 C69.2127775,108.325324 69.0677849,107.871076 68.7063532,107.641892 L68.7063532,107.641892 Z M51.9092092,151.769434 C49.6958227,161.575555 40.7439041,184.472847 31.7673923,182.707745 C26.1510205,181.548123 21.3455424,177.953181 18.6592257,172.901624 C16.1406266,166.78336 16.1406266,159.922469 18.6592257,153.804204 C22.2750124,146.050083 27.1715812,138.956383 33.1446106,132.819106 C34.0842789,131.871423 34.9709714,130.872961 35.8006743,129.82824 C36.9319607,128.381837 38.0632472,126.763827 39.1699404,124.925179 C44.0290118,116.72665 48.1442066,108.112108 51.4665319,99.1841126 L67.0340168,108.794111 C65.1157485,113.893293 53.8028843,143.213594 51.9092092,151.695888 L51.9092092,151.769434 Z" id="Shape" fill="#000000"></path>
                <path d="M101.120168,467.477488 C100.853203,467.474846 100.621257,467.293898 100.554525,467.036212 C100.457407,466.718449 100.631919,466.381404 100.948016,466.276238 L128.000518,458.063612 C128.332751,457.967432 128.681471,458.152103 128.787499,458.480372 C128.833157,458.636417 128.814759,458.80415 128.736353,458.946673 C128.657947,459.089196 128.525956,459.194833 128.369415,459.240346 L101.316914,467.452972 L101.120168,467.477488 Z" id="Path" fill="#FFFFFF"></path>
            </g>
        </g>
    </g>
</svg>